%FSLAX46Y46*%
G04 Gerber Fmt 4.6, Leading zero omitted, Abs format (unit mm)*
G04 Created by KiCad (PCBNEW (2014-10-27 BZR 5228)-product) date 06.12.2014 02:57:52*
%MOMM*%
G01*
G04 APERTURE LIST*
%ADD10C,0.100000*%
%ADD11R,1.727200X1.727200*%
%ADD12O,1.727200X1.727200*%
%ADD13C,3.810000*%
%ADD14R,3.810000X3.810000*%
%ADD15C,4.064000*%
%ADD16R,1.143000X0.635000*%
%ADD17R,0.635000X1.143000*%
G04 APERTURE END LIST*
D10*
D11*
X186690000Y-32385000D03*
D12*
X186690000Y-34925000D03*
X184150000Y-32385000D03*
X184150000Y-34925000D03*
X181610000Y-32385000D03*
X181610000Y-34925000D03*
X179070000Y-32385000D03*
X179070000Y-34925000D03*
X176530000Y-32385000D03*
X176530000Y-34925000D03*
D13*
X202565000Y-33655000D03*
X207645000Y-33655000D03*
D14*
X197485000Y-33655000D03*
D13*
X212725000Y-33655000D03*
D15*
X210820000Y-41910000D03*
X210820000Y-69850000D03*
D16*
X185420000Y-67437000D03*
X185420000Y-65913000D03*
X180975000Y-63373000D03*
X180975000Y-64897000D03*
D17*
X184023000Y-73025000D03*
X185547000Y-73025000D03*
D16*
X185420000Y-70612000D03*
X185420000Y-69088000D03*
X183515000Y-67437000D03*
X183515000Y-65913000D03*
X183515000Y-70612000D03*
X183515000Y-69088000D03*
X180975000Y-60198000D03*
X180975000Y-61722000D03*
X179070000Y-63373000D03*
X179070000Y-64897000D03*
X179070000Y-60198000D03*
X179070000Y-61722000D03*
D17*
X180848000Y-73025000D03*
X182372000Y-73025000D03*
X184023000Y-74930000D03*
X185547000Y-74930000D03*
X180848000Y-74930000D03*
X182372000Y-74930000D03*
X177800000Y-68834000D03*
X179324000Y-68834000D03*
X177800000Y-70485000D03*
X179324000Y-70485000D03*
D15*
X210820000Y-55880000D03*
M02*
