%FSLAX46Y46*%
G04 Gerber Fmt 4.6, Leading zero omitted, Abs format (unit mm)*
G04 Created by KiCad (PCBNEW (2014-10-27 BZR 5228)-product) date 06.12.2014 02:57:52*
%MOMM*%
G01*
G04 APERTURE LIST*
%ADD10C,0.100000*%
%ADD11R,4.600000X4.200000*%
%ADD12R,1.500000X0.250000*%
%ADD13R,1.150000X0.700000*%
%ADD14R,1.727200X1.727200*%
%ADD15O,1.727200X1.727200*%
%ADD16C,3.810000*%
%ADD17R,3.810000X3.810000*%
%ADD18R,0.635000X1.905000*%
%ADD19R,1.143000X0.635000*%
%ADD20R,1.524000X2.032000*%
%ADD21R,1.143000X0.508000*%
%ADD22C,4.064000*%
%ADD23R,2.000000X0.600000*%
%ADD24R,0.635000X1.143000*%
G04 APERTURE END LIST*
D10*
D11*
X212020000Y-62230000D03*
D12*
X213570000Y-64455000D03*
X213570000Y-60005000D03*
D13*
X208095000Y-60325000D03*
X208095000Y-61595000D03*
X208095000Y-62865000D03*
X208095000Y-64135000D03*
D11*
X212020000Y-76200000D03*
D12*
X213570000Y-78425000D03*
X213570000Y-73975000D03*
D13*
X208095000Y-74295000D03*
X208095000Y-75565000D03*
X208095000Y-76835000D03*
X208095000Y-78105000D03*
D11*
X204400000Y-76200000D03*
D12*
X205950000Y-78425000D03*
X205950000Y-73975000D03*
D13*
X200475000Y-74295000D03*
X200475000Y-75565000D03*
X200475000Y-76835000D03*
X200475000Y-78105000D03*
D14*
X186690000Y-32385000D03*
D15*
X186690000Y-34925000D03*
X184150000Y-32385000D03*
X184150000Y-34925000D03*
X181610000Y-32385000D03*
X181610000Y-34925000D03*
X179070000Y-32385000D03*
X179070000Y-34925000D03*
X176530000Y-32385000D03*
X176530000Y-34925000D03*
D16*
X202565000Y-33655000D03*
X207645000Y-33655000D03*
D17*
X197485000Y-33655000D03*
D16*
X212725000Y-33655000D03*
D18*
X184785000Y-43815000D03*
X183515000Y-43815000D03*
X182245000Y-43815000D03*
X180975000Y-43815000D03*
X179705000Y-43815000D03*
X178435000Y-43815000D03*
X177165000Y-43815000D03*
X175895000Y-43815000D03*
X175895000Y-53975000D03*
X177165000Y-53975000D03*
X178435000Y-53975000D03*
X179705000Y-53975000D03*
X180975000Y-53975000D03*
X182245000Y-53975000D03*
X183515000Y-53975000D03*
X184785000Y-53975000D03*
D19*
X198120000Y-64262000D03*
X198120000Y-62738000D03*
D20*
X191643000Y-49530000D03*
X194945000Y-49530000D03*
D21*
X194945000Y-43815000D03*
X194945000Y-42545000D03*
X194945000Y-41275000D03*
X194945000Y-40005000D03*
X201295000Y-40005000D03*
X201295000Y-41275000D03*
X201295000Y-42545000D03*
X201295000Y-43815000D03*
D11*
X204400000Y-48260000D03*
D12*
X205950000Y-50485000D03*
X205950000Y-46035000D03*
D13*
X200475000Y-46355000D03*
X200475000Y-47625000D03*
X200475000Y-48895000D03*
X200475000Y-50165000D03*
D22*
X210820000Y-41910000D03*
D11*
X212020000Y-48260000D03*
D12*
X213570000Y-50485000D03*
X213570000Y-46035000D03*
D13*
X208095000Y-46355000D03*
X208095000Y-47625000D03*
X208095000Y-48895000D03*
X208095000Y-50165000D03*
D11*
X204400000Y-62230000D03*
D12*
X205950000Y-64455000D03*
X205950000Y-60005000D03*
D13*
X200475000Y-60325000D03*
X200475000Y-61595000D03*
X200475000Y-62865000D03*
X200475000Y-64135000D03*
D23*
X175640000Y-61595000D03*
X175640000Y-62865000D03*
X175640000Y-64135000D03*
X175640000Y-65405000D03*
X175640000Y-66675000D03*
X175640000Y-67945000D03*
X175640000Y-69215000D03*
X175640000Y-70485000D03*
X175640000Y-71755000D03*
X175640000Y-73025000D03*
X175640000Y-74295000D03*
X175640000Y-75565000D03*
X185040000Y-75565000D03*
X185040000Y-74295000D03*
X185040000Y-73025000D03*
X185040000Y-71755000D03*
X185040000Y-70485000D03*
X185040000Y-69215000D03*
X185040000Y-67945000D03*
X185040000Y-66675000D03*
X185040000Y-65405000D03*
X185040000Y-64135000D03*
X185040000Y-62865000D03*
X185040000Y-61595000D03*
D20*
X191389000Y-62230000D03*
X194691000Y-62230000D03*
D22*
X210820000Y-69850000D03*
D19*
X193040000Y-41402000D03*
X193040000Y-39878000D03*
X193040000Y-69342000D03*
X193040000Y-67818000D03*
X190500000Y-55372000D03*
X190500000Y-53848000D03*
X190500000Y-41402000D03*
X190500000Y-39878000D03*
X191135000Y-69342000D03*
X191135000Y-67818000D03*
X203200000Y-42672000D03*
X203200000Y-41148000D03*
X203200000Y-70612000D03*
X203200000Y-69088000D03*
X198120000Y-50292000D03*
X198120000Y-48768000D03*
D24*
X192532000Y-57150000D03*
X191008000Y-57150000D03*
X192532000Y-43180000D03*
X191008000Y-43180000D03*
X192532000Y-71120000D03*
X191008000Y-71120000D03*
D19*
X198120000Y-78232000D03*
X198120000Y-76708000D03*
D21*
X194945000Y-71755000D03*
X194945000Y-70485000D03*
X194945000Y-69215000D03*
X194945000Y-67945000D03*
X201295000Y-67945000D03*
X201295000Y-69215000D03*
X201295000Y-70485000D03*
X201295000Y-71755000D03*
D19*
X193040000Y-55372000D03*
X193040000Y-53848000D03*
X203200000Y-56642000D03*
X203200000Y-55118000D03*
D21*
X194945000Y-57785000D03*
X194945000Y-56515000D03*
X194945000Y-55245000D03*
X194945000Y-53975000D03*
X201295000Y-53975000D03*
X201295000Y-55245000D03*
X201295000Y-56515000D03*
X201295000Y-57785000D03*
D22*
X210820000Y-55880000D03*
D20*
X191389000Y-64770000D03*
X194691000Y-64770000D03*
X188849000Y-46990000D03*
X192151000Y-46990000D03*
X191389000Y-77470000D03*
X194691000Y-77470000D03*
X188849000Y-74930000D03*
X192151000Y-74930000D03*
M02*
