%FSLAX46Y46*%
G04 Gerber Fmt 4.6, Leading zero omitted, Abs format (unit mm)*
G04 Created by KiCad (PCBNEW (2014-10-27 BZR 5228)-product) date 06.12.2014 02:57:52*
%MOMM*%
G01*
G04 APERTURE LIST*
%ADD10C,0.100000*%
%ADD11C,0.150000*%
%ADD12C,0.114300*%
G04 APERTURE END LIST*
D10*
D11*
X186118500Y-67175380D02*
X186118500Y-67881500D01*
X186118500Y-67881500D02*
X184721500Y-67881500D01*
X184721500Y-67881500D02*
X184721500Y-67175380D01*
X186118500Y-65468500D02*
X186118500Y-66174620D01*
X186118500Y-65468500D02*
X184721500Y-65468500D01*
X184721500Y-65468500D02*
X184721500Y-66174620D01*
X180276500Y-63634620D02*
X180276500Y-62928500D01*
X180276500Y-62928500D02*
X181673500Y-62928500D01*
X181673500Y-62928500D02*
X181673500Y-63634620D01*
X180276500Y-65341500D02*
X180276500Y-64635380D01*
X180276500Y-65341500D02*
X181673500Y-65341500D01*
X181673500Y-65341500D02*
X181673500Y-64635380D01*
X184284620Y-73723500D02*
X183578500Y-73723500D01*
X183578500Y-73723500D02*
X183578500Y-72326500D01*
X183578500Y-72326500D02*
X184284620Y-72326500D01*
X185991500Y-73723500D02*
X185285380Y-73723500D01*
X185991500Y-73723500D02*
X185991500Y-72326500D01*
X185991500Y-72326500D02*
X185285380Y-72326500D01*
X186118500Y-70350380D02*
X186118500Y-71056500D01*
X186118500Y-71056500D02*
X184721500Y-71056500D01*
X184721500Y-71056500D02*
X184721500Y-70350380D01*
X186118500Y-68643500D02*
X186118500Y-69349620D01*
X186118500Y-68643500D02*
X184721500Y-68643500D01*
X184721500Y-68643500D02*
X184721500Y-69349620D01*
X184213500Y-67175380D02*
X184213500Y-67881500D01*
X184213500Y-67881500D02*
X182816500Y-67881500D01*
X182816500Y-67881500D02*
X182816500Y-67175380D01*
X184213500Y-65468500D02*
X184213500Y-66174620D01*
X184213500Y-65468500D02*
X182816500Y-65468500D01*
X182816500Y-65468500D02*
X182816500Y-66174620D01*
X184213500Y-70350380D02*
X184213500Y-71056500D01*
X184213500Y-71056500D02*
X182816500Y-71056500D01*
X182816500Y-71056500D02*
X182816500Y-70350380D01*
X184213500Y-68643500D02*
X184213500Y-69349620D01*
X184213500Y-68643500D02*
X182816500Y-68643500D01*
X182816500Y-68643500D02*
X182816500Y-69349620D01*
X180276500Y-60459620D02*
X180276500Y-59753500D01*
X180276500Y-59753500D02*
X181673500Y-59753500D01*
X181673500Y-59753500D02*
X181673500Y-60459620D01*
X180276500Y-62166500D02*
X180276500Y-61460380D01*
X180276500Y-62166500D02*
X181673500Y-62166500D01*
X181673500Y-62166500D02*
X181673500Y-61460380D01*
X178371500Y-63634620D02*
X178371500Y-62928500D01*
X178371500Y-62928500D02*
X179768500Y-62928500D01*
X179768500Y-62928500D02*
X179768500Y-63634620D01*
X178371500Y-65341500D02*
X178371500Y-64635380D01*
X178371500Y-65341500D02*
X179768500Y-65341500D01*
X179768500Y-65341500D02*
X179768500Y-64635380D01*
X178371500Y-60459620D02*
X178371500Y-59753500D01*
X178371500Y-59753500D02*
X179768500Y-59753500D01*
X179768500Y-59753500D02*
X179768500Y-60459620D01*
X178371500Y-62166500D02*
X178371500Y-61460380D01*
X178371500Y-62166500D02*
X179768500Y-62166500D01*
X179768500Y-62166500D02*
X179768500Y-61460380D01*
X181109620Y-73723500D02*
X180403500Y-73723500D01*
X180403500Y-73723500D02*
X180403500Y-72326500D01*
X180403500Y-72326500D02*
X181109620Y-72326500D01*
X182816500Y-73723500D02*
X182110380Y-73723500D01*
X182816500Y-73723500D02*
X182816500Y-72326500D01*
X182816500Y-72326500D02*
X182110380Y-72326500D01*
X184284620Y-75628500D02*
X183578500Y-75628500D01*
X183578500Y-75628500D02*
X183578500Y-74231500D01*
X183578500Y-74231500D02*
X184284620Y-74231500D01*
X185991500Y-75628500D02*
X185285380Y-75628500D01*
X185991500Y-75628500D02*
X185991500Y-74231500D01*
X185991500Y-74231500D02*
X185285380Y-74231500D01*
X181109620Y-75628500D02*
X180403500Y-75628500D01*
X180403500Y-75628500D02*
X180403500Y-74231500D01*
X180403500Y-74231500D02*
X181109620Y-74231500D01*
X182816500Y-75628500D02*
X182110380Y-75628500D01*
X182816500Y-75628500D02*
X182816500Y-74231500D01*
X182816500Y-74231500D02*
X182110380Y-74231500D01*
X178061620Y-69532500D02*
X177355500Y-69532500D01*
X177355500Y-69532500D02*
X177355500Y-68135500D01*
X177355500Y-68135500D02*
X178061620Y-68135500D01*
X179768500Y-69532500D02*
X179062380Y-69532500D01*
X179768500Y-69532500D02*
X179768500Y-68135500D01*
X179768500Y-68135500D02*
X179062380Y-68135500D01*
X178061620Y-71183500D02*
X177355500Y-71183500D01*
X177355500Y-71183500D02*
X177355500Y-69786500D01*
X177355500Y-69786500D02*
X178061620Y-69786500D01*
X179768500Y-71183500D02*
X179062380Y-71183500D01*
X179768500Y-71183500D02*
X179768500Y-69786500D01*
X179768500Y-69786500D02*
X179062380Y-69786500D01*
D12*
X185559700Y-66790207D02*
X185581471Y-66814035D01*
X185646785Y-66837862D01*
X185690328Y-66837862D01*
X185755643Y-66814035D01*
X185799185Y-66766380D01*
X185820957Y-66718724D01*
X185842728Y-66623414D01*
X185842728Y-66551931D01*
X185820957Y-66456620D01*
X185799185Y-66408965D01*
X185755643Y-66361310D01*
X185690328Y-66337482D01*
X185646785Y-66337482D01*
X185581471Y-66361310D01*
X185559700Y-66385138D01*
X185124271Y-66837862D02*
X185385528Y-66837862D01*
X185254900Y-66837862D02*
X185254900Y-66337482D01*
X185298443Y-66408965D01*
X185341985Y-66456620D01*
X185385528Y-66480448D01*
X185931629Y-68604070D02*
X186192886Y-68604070D01*
X186062258Y-68604070D02*
X186062258Y-68096070D01*
X186105801Y-68168641D01*
X186149343Y-68217022D01*
X186192886Y-68241212D01*
X185648600Y-68096070D02*
X185605057Y-68096070D01*
X185561514Y-68120260D01*
X185539743Y-68144450D01*
X185517972Y-68192831D01*
X185496200Y-68289593D01*
X185496200Y-68410546D01*
X185517972Y-68507308D01*
X185539743Y-68555689D01*
X185561514Y-68579879D01*
X185605057Y-68604070D01*
X185648600Y-68604070D01*
X185692143Y-68579879D01*
X185713914Y-68555689D01*
X185735686Y-68507308D01*
X185757457Y-68410546D01*
X185757457Y-68289593D01*
X185735686Y-68192831D01*
X185713914Y-68144450D01*
X185692143Y-68120260D01*
X185648600Y-68096070D01*
X185213171Y-68096070D02*
X185169628Y-68096070D01*
X185126085Y-68120260D01*
X185104314Y-68144450D01*
X185082543Y-68192831D01*
X185060771Y-68289593D01*
X185060771Y-68410546D01*
X185082543Y-68507308D01*
X185104314Y-68555689D01*
X185126085Y-68579879D01*
X185169628Y-68604070D01*
X185213171Y-68604070D01*
X185256714Y-68579879D01*
X185278485Y-68555689D01*
X185300257Y-68507308D01*
X185322028Y-68410546D01*
X185322028Y-68289593D01*
X185300257Y-68192831D01*
X185278485Y-68144450D01*
X185256714Y-68120260D01*
X185213171Y-68096070D01*
X184864828Y-68265403D02*
X184864828Y-68604070D01*
X184864828Y-68313784D02*
X184843056Y-68289593D01*
X184799514Y-68265403D01*
X184734199Y-68265403D01*
X184690656Y-68289593D01*
X184668885Y-68337974D01*
X184668885Y-68604070D01*
X180987700Y-64377207D02*
X181009471Y-64401035D01*
X181074785Y-64424862D01*
X181118328Y-64424862D01*
X181183643Y-64401035D01*
X181227185Y-64353380D01*
X181248957Y-64305724D01*
X181270728Y-64210414D01*
X181270728Y-64138931D01*
X181248957Y-64043620D01*
X181227185Y-63995965D01*
X181183643Y-63948310D01*
X181118328Y-63924482D01*
X181074785Y-63924482D01*
X181009471Y-63948310D01*
X180987700Y-63972138D01*
X180813528Y-63972138D02*
X180791757Y-63948310D01*
X180748214Y-63924482D01*
X180639357Y-63924482D01*
X180595814Y-63948310D01*
X180574043Y-63972138D01*
X180552271Y-64019793D01*
X180552271Y-64067448D01*
X180574043Y-64138931D01*
X180835300Y-64424862D01*
X180552271Y-64424862D01*
X181486629Y-62665550D02*
X181747886Y-62665550D01*
X181617258Y-62665550D02*
X181617258Y-62157550D01*
X181660801Y-62230121D01*
X181704343Y-62278502D01*
X181747886Y-62302692D01*
X181203600Y-62157550D02*
X181160057Y-62157550D01*
X181116514Y-62181740D01*
X181094743Y-62205930D01*
X181072972Y-62254311D01*
X181051200Y-62351073D01*
X181051200Y-62472026D01*
X181072972Y-62568788D01*
X181094743Y-62617169D01*
X181116514Y-62641359D01*
X181160057Y-62665550D01*
X181203600Y-62665550D01*
X181247143Y-62641359D01*
X181268914Y-62617169D01*
X181290686Y-62568788D01*
X181312457Y-62472026D01*
X181312457Y-62351073D01*
X181290686Y-62254311D01*
X181268914Y-62205930D01*
X181247143Y-62181740D01*
X181203600Y-62157550D01*
X180768171Y-62157550D02*
X180724628Y-62157550D01*
X180681085Y-62181740D01*
X180659314Y-62205930D01*
X180637543Y-62254311D01*
X180615771Y-62351073D01*
X180615771Y-62472026D01*
X180637543Y-62568788D01*
X180659314Y-62617169D01*
X180681085Y-62641359D01*
X180724628Y-62665550D01*
X180768171Y-62665550D01*
X180811714Y-62641359D01*
X180833485Y-62617169D01*
X180855257Y-62568788D01*
X180877028Y-62472026D01*
X180877028Y-62351073D01*
X180855257Y-62254311D01*
X180833485Y-62205930D01*
X180811714Y-62181740D01*
X180768171Y-62157550D01*
X180419828Y-62326883D02*
X180419828Y-62665550D01*
X180419828Y-62375264D02*
X180398056Y-62351073D01*
X180354514Y-62326883D01*
X180289199Y-62326883D01*
X180245656Y-62351073D01*
X180223885Y-62399454D01*
X180223885Y-62665550D01*
X185027207Y-73012300D02*
X185051035Y-72990529D01*
X185074862Y-72925215D01*
X185074862Y-72881672D01*
X185051035Y-72816357D01*
X185003380Y-72772815D01*
X184955724Y-72751043D01*
X184860414Y-72729272D01*
X184788931Y-72729272D01*
X184693620Y-72751043D01*
X184645965Y-72772815D01*
X184598310Y-72816357D01*
X184574482Y-72881672D01*
X184574482Y-72925215D01*
X184598310Y-72990529D01*
X184622138Y-73012300D01*
X184574482Y-73164700D02*
X184574482Y-73447729D01*
X184765103Y-73295329D01*
X184765103Y-73360643D01*
X184788931Y-73404186D01*
X184812759Y-73425957D01*
X184860414Y-73447729D01*
X184979552Y-73447729D01*
X185027207Y-73425957D01*
X185051035Y-73404186D01*
X185074862Y-73360643D01*
X185074862Y-73230015D01*
X185051035Y-73186472D01*
X185027207Y-73164700D01*
X183315550Y-72513371D02*
X183315550Y-72252114D01*
X183315550Y-72382742D02*
X182807550Y-72382742D01*
X182880121Y-72339199D01*
X182928502Y-72295657D01*
X182952692Y-72252114D01*
X182807550Y-72796400D02*
X182807550Y-72839943D01*
X182831740Y-72883486D01*
X182855930Y-72905257D01*
X182904311Y-72927028D01*
X183001073Y-72948800D01*
X183122026Y-72948800D01*
X183218788Y-72927028D01*
X183267169Y-72905257D01*
X183291359Y-72883486D01*
X183315550Y-72839943D01*
X183315550Y-72796400D01*
X183291359Y-72752857D01*
X183267169Y-72731086D01*
X183218788Y-72709314D01*
X183122026Y-72687543D01*
X183001073Y-72687543D01*
X182904311Y-72709314D01*
X182855930Y-72731086D01*
X182831740Y-72752857D01*
X182807550Y-72796400D01*
X182807550Y-73231829D02*
X182807550Y-73275372D01*
X182831740Y-73318915D01*
X182855930Y-73340686D01*
X182904311Y-73362457D01*
X183001073Y-73384229D01*
X183122026Y-73384229D01*
X183218788Y-73362457D01*
X183267169Y-73340686D01*
X183291359Y-73318915D01*
X183315550Y-73275372D01*
X183315550Y-73231829D01*
X183291359Y-73188286D01*
X183267169Y-73166515D01*
X183218788Y-73144743D01*
X183122026Y-73122972D01*
X183001073Y-73122972D01*
X182904311Y-73144743D01*
X182855930Y-73166515D01*
X182831740Y-73188286D01*
X182807550Y-73231829D01*
X182976883Y-73580172D02*
X183315550Y-73580172D01*
X183025264Y-73580172D02*
X183001073Y-73601944D01*
X182976883Y-73645486D01*
X182976883Y-73710801D01*
X183001073Y-73754344D01*
X183049454Y-73776115D01*
X183315550Y-73776115D01*
X185820957Y-70012862D02*
X185820957Y-69512482D01*
X185712100Y-69512482D01*
X185646785Y-69536310D01*
X185603243Y-69583965D01*
X185581471Y-69631620D01*
X185559700Y-69726931D01*
X185559700Y-69798414D01*
X185581471Y-69893724D01*
X185603243Y-69941380D01*
X185646785Y-69989035D01*
X185712100Y-70012862D01*
X185820957Y-70012862D01*
X185124271Y-70012862D02*
X185385528Y-70012862D01*
X185254900Y-70012862D02*
X185254900Y-69512482D01*
X185298443Y-69583965D01*
X185341985Y-69631620D01*
X185385528Y-69655448D01*
X186323514Y-71779070D02*
X186323514Y-71271070D01*
X186214657Y-71271070D01*
X186149342Y-71295260D01*
X186105800Y-71343641D01*
X186084028Y-71392022D01*
X186062257Y-71488784D01*
X186062257Y-71561355D01*
X186084028Y-71658117D01*
X186105800Y-71706498D01*
X186149342Y-71754879D01*
X186214657Y-71779070D01*
X186323514Y-71779070D01*
X185866314Y-71779070D02*
X185866314Y-71271070D01*
X185561514Y-71271070D02*
X185474428Y-71271070D01*
X185430886Y-71295260D01*
X185387343Y-71343641D01*
X185365571Y-71440403D01*
X185365571Y-71609736D01*
X185387343Y-71706498D01*
X185430886Y-71754879D01*
X185474428Y-71779070D01*
X185561514Y-71779070D01*
X185605057Y-71754879D01*
X185648600Y-71706498D01*
X185670371Y-71609736D01*
X185670371Y-71440403D01*
X185648600Y-71343641D01*
X185605057Y-71295260D01*
X185561514Y-71271070D01*
X185169629Y-71779070D02*
X185169629Y-71271070D01*
X185060772Y-71271070D01*
X184995457Y-71295260D01*
X184951915Y-71343641D01*
X184930143Y-71392022D01*
X184908372Y-71488784D01*
X184908372Y-71561355D01*
X184930143Y-71658117D01*
X184951915Y-71706498D01*
X184995457Y-71754879D01*
X185060772Y-71779070D01*
X185169629Y-71779070D01*
X184712429Y-71512974D02*
X184560029Y-71512974D01*
X184494715Y-71779070D02*
X184712429Y-71779070D01*
X184712429Y-71271070D01*
X184494715Y-71271070D01*
X183915957Y-66837862D02*
X183915957Y-66337482D01*
X183807100Y-66337482D01*
X183741785Y-66361310D01*
X183698243Y-66408965D01*
X183676471Y-66456620D01*
X183654700Y-66551931D01*
X183654700Y-66623414D01*
X183676471Y-66718724D01*
X183698243Y-66766380D01*
X183741785Y-66814035D01*
X183807100Y-66837862D01*
X183915957Y-66837862D01*
X183480528Y-66385138D02*
X183458757Y-66361310D01*
X183415214Y-66337482D01*
X183306357Y-66337482D01*
X183262814Y-66361310D01*
X183241043Y-66385138D01*
X183219271Y-66432793D01*
X183219271Y-66480448D01*
X183241043Y-66551931D01*
X183502300Y-66837862D01*
X183219271Y-66837862D01*
X184418514Y-68604070D02*
X184418514Y-68096070D01*
X184309657Y-68096070D01*
X184244342Y-68120260D01*
X184200800Y-68168641D01*
X184179028Y-68217022D01*
X184157257Y-68313784D01*
X184157257Y-68386355D01*
X184179028Y-68483117D01*
X184200800Y-68531498D01*
X184244342Y-68579879D01*
X184309657Y-68604070D01*
X184418514Y-68604070D01*
X183961314Y-68604070D02*
X183961314Y-68096070D01*
X183656514Y-68096070D02*
X183569428Y-68096070D01*
X183525886Y-68120260D01*
X183482343Y-68168641D01*
X183460571Y-68265403D01*
X183460571Y-68434736D01*
X183482343Y-68531498D01*
X183525886Y-68579879D01*
X183569428Y-68604070D01*
X183656514Y-68604070D01*
X183700057Y-68579879D01*
X183743600Y-68531498D01*
X183765371Y-68434736D01*
X183765371Y-68265403D01*
X183743600Y-68168641D01*
X183700057Y-68120260D01*
X183656514Y-68096070D01*
X183264629Y-68604070D02*
X183264629Y-68096070D01*
X183155772Y-68096070D01*
X183090457Y-68120260D01*
X183046915Y-68168641D01*
X183025143Y-68217022D01*
X183003372Y-68313784D01*
X183003372Y-68386355D01*
X183025143Y-68483117D01*
X183046915Y-68531498D01*
X183090457Y-68579879D01*
X183155772Y-68604070D01*
X183264629Y-68604070D01*
X182807429Y-68337974D02*
X182655029Y-68337974D01*
X182589715Y-68604070D02*
X182807429Y-68604070D01*
X182807429Y-68096070D01*
X182589715Y-68096070D01*
X183915957Y-70012862D02*
X183915957Y-69512482D01*
X183807100Y-69512482D01*
X183741785Y-69536310D01*
X183698243Y-69583965D01*
X183676471Y-69631620D01*
X183654700Y-69726931D01*
X183654700Y-69798414D01*
X183676471Y-69893724D01*
X183698243Y-69941380D01*
X183741785Y-69989035D01*
X183807100Y-70012862D01*
X183915957Y-70012862D01*
X183502300Y-69512482D02*
X183219271Y-69512482D01*
X183371671Y-69703103D01*
X183306357Y-69703103D01*
X183262814Y-69726931D01*
X183241043Y-69750759D01*
X183219271Y-69798414D01*
X183219271Y-69917552D01*
X183241043Y-69965207D01*
X183262814Y-69989035D01*
X183306357Y-70012862D01*
X183436985Y-70012862D01*
X183480528Y-69989035D01*
X183502300Y-69965207D01*
X184418514Y-71779070D02*
X184418514Y-71271070D01*
X184309657Y-71271070D01*
X184244342Y-71295260D01*
X184200800Y-71343641D01*
X184179028Y-71392022D01*
X184157257Y-71488784D01*
X184157257Y-71561355D01*
X184179028Y-71658117D01*
X184200800Y-71706498D01*
X184244342Y-71754879D01*
X184309657Y-71779070D01*
X184418514Y-71779070D01*
X183961314Y-71779070D02*
X183961314Y-71271070D01*
X183656514Y-71271070D02*
X183569428Y-71271070D01*
X183525886Y-71295260D01*
X183482343Y-71343641D01*
X183460571Y-71440403D01*
X183460571Y-71609736D01*
X183482343Y-71706498D01*
X183525886Y-71754879D01*
X183569428Y-71779070D01*
X183656514Y-71779070D01*
X183700057Y-71754879D01*
X183743600Y-71706498D01*
X183765371Y-71609736D01*
X183765371Y-71440403D01*
X183743600Y-71343641D01*
X183700057Y-71295260D01*
X183656514Y-71271070D01*
X183264629Y-71779070D02*
X183264629Y-71271070D01*
X183155772Y-71271070D01*
X183090457Y-71295260D01*
X183046915Y-71343641D01*
X183025143Y-71392022D01*
X183003372Y-71488784D01*
X183003372Y-71561355D01*
X183025143Y-71658117D01*
X183046915Y-71706498D01*
X183090457Y-71754879D01*
X183155772Y-71779070D01*
X183264629Y-71779070D01*
X182807429Y-71512974D02*
X182655029Y-71512974D01*
X182589715Y-71779070D02*
X182807429Y-71779070D01*
X182807429Y-71271070D01*
X182589715Y-71271070D01*
X181248957Y-61249862D02*
X181248957Y-60749482D01*
X181140100Y-60749482D01*
X181074785Y-60773310D01*
X181031243Y-60820965D01*
X181009471Y-60868620D01*
X180987700Y-60963931D01*
X180987700Y-61035414D01*
X181009471Y-61130724D01*
X181031243Y-61178380D01*
X181074785Y-61226035D01*
X181140100Y-61249862D01*
X181248957Y-61249862D01*
X180595814Y-60916276D02*
X180595814Y-61249862D01*
X180704671Y-60725655D02*
X180813528Y-61083069D01*
X180530500Y-61083069D01*
X181878514Y-59490550D02*
X181878514Y-58982550D01*
X181769657Y-58982550D01*
X181704342Y-59006740D01*
X181660800Y-59055121D01*
X181639028Y-59103502D01*
X181617257Y-59200264D01*
X181617257Y-59272835D01*
X181639028Y-59369597D01*
X181660800Y-59417978D01*
X181704342Y-59466359D01*
X181769657Y-59490550D01*
X181878514Y-59490550D01*
X181421314Y-59490550D02*
X181421314Y-58982550D01*
X181116514Y-58982550D02*
X181029428Y-58982550D01*
X180985886Y-59006740D01*
X180942343Y-59055121D01*
X180920571Y-59151883D01*
X180920571Y-59321216D01*
X180942343Y-59417978D01*
X180985886Y-59466359D01*
X181029428Y-59490550D01*
X181116514Y-59490550D01*
X181160057Y-59466359D01*
X181203600Y-59417978D01*
X181225371Y-59321216D01*
X181225371Y-59151883D01*
X181203600Y-59055121D01*
X181160057Y-59006740D01*
X181116514Y-58982550D01*
X180724629Y-59490550D02*
X180724629Y-58982550D01*
X180615772Y-58982550D01*
X180550457Y-59006740D01*
X180506915Y-59055121D01*
X180485143Y-59103502D01*
X180463372Y-59200264D01*
X180463372Y-59272835D01*
X180485143Y-59369597D01*
X180506915Y-59417978D01*
X180550457Y-59466359D01*
X180615772Y-59490550D01*
X180724629Y-59490550D01*
X180267429Y-59224454D02*
X180115029Y-59224454D01*
X180049715Y-59490550D02*
X180267429Y-59490550D01*
X180267429Y-58982550D01*
X180049715Y-58982550D01*
X179343957Y-64424862D02*
X179343957Y-63924482D01*
X179235100Y-63924482D01*
X179169785Y-63948310D01*
X179126243Y-63995965D01*
X179104471Y-64043620D01*
X179082700Y-64138931D01*
X179082700Y-64210414D01*
X179104471Y-64305724D01*
X179126243Y-64353380D01*
X179169785Y-64401035D01*
X179235100Y-64424862D01*
X179343957Y-64424862D01*
X178669043Y-63924482D02*
X178886757Y-63924482D01*
X178908528Y-64162759D01*
X178886757Y-64138931D01*
X178843214Y-64115103D01*
X178734357Y-64115103D01*
X178690814Y-64138931D01*
X178669043Y-64162759D01*
X178647271Y-64210414D01*
X178647271Y-64329552D01*
X178669043Y-64377207D01*
X178690814Y-64401035D01*
X178734357Y-64424862D01*
X178843214Y-64424862D01*
X178886757Y-64401035D01*
X178908528Y-64377207D01*
X179973514Y-62665550D02*
X179973514Y-62157550D01*
X179864657Y-62157550D01*
X179799342Y-62181740D01*
X179755800Y-62230121D01*
X179734028Y-62278502D01*
X179712257Y-62375264D01*
X179712257Y-62447835D01*
X179734028Y-62544597D01*
X179755800Y-62592978D01*
X179799342Y-62641359D01*
X179864657Y-62665550D01*
X179973514Y-62665550D01*
X179516314Y-62665550D02*
X179516314Y-62157550D01*
X179211514Y-62157550D02*
X179124428Y-62157550D01*
X179080886Y-62181740D01*
X179037343Y-62230121D01*
X179015571Y-62326883D01*
X179015571Y-62496216D01*
X179037343Y-62592978D01*
X179080886Y-62641359D01*
X179124428Y-62665550D01*
X179211514Y-62665550D01*
X179255057Y-62641359D01*
X179298600Y-62592978D01*
X179320371Y-62496216D01*
X179320371Y-62326883D01*
X179298600Y-62230121D01*
X179255057Y-62181740D01*
X179211514Y-62157550D01*
X178819629Y-62665550D02*
X178819629Y-62157550D01*
X178710772Y-62157550D01*
X178645457Y-62181740D01*
X178601915Y-62230121D01*
X178580143Y-62278502D01*
X178558372Y-62375264D01*
X178558372Y-62447835D01*
X178580143Y-62544597D01*
X178601915Y-62592978D01*
X178645457Y-62641359D01*
X178710772Y-62665550D01*
X178819629Y-62665550D01*
X178362429Y-62399454D02*
X178210029Y-62399454D01*
X178144715Y-62665550D02*
X178362429Y-62665550D01*
X178362429Y-62157550D01*
X178144715Y-62157550D01*
X179343957Y-61249862D02*
X179343957Y-60749482D01*
X179235100Y-60749482D01*
X179169785Y-60773310D01*
X179126243Y-60820965D01*
X179104471Y-60868620D01*
X179082700Y-60963931D01*
X179082700Y-61035414D01*
X179104471Y-61130724D01*
X179126243Y-61178380D01*
X179169785Y-61226035D01*
X179235100Y-61249862D01*
X179343957Y-61249862D01*
X178690814Y-60749482D02*
X178777900Y-60749482D01*
X178821443Y-60773310D01*
X178843214Y-60797138D01*
X178886757Y-60868620D01*
X178908528Y-60963931D01*
X178908528Y-61154552D01*
X178886757Y-61202207D01*
X178864985Y-61226035D01*
X178821443Y-61249862D01*
X178734357Y-61249862D01*
X178690814Y-61226035D01*
X178669043Y-61202207D01*
X178647271Y-61154552D01*
X178647271Y-61035414D01*
X178669043Y-60987759D01*
X178690814Y-60963931D01*
X178734357Y-60940103D01*
X178821443Y-60940103D01*
X178864985Y-60963931D01*
X178886757Y-60987759D01*
X178908528Y-61035414D01*
X179973514Y-59490550D02*
X179973514Y-58982550D01*
X179864657Y-58982550D01*
X179799342Y-59006740D01*
X179755800Y-59055121D01*
X179734028Y-59103502D01*
X179712257Y-59200264D01*
X179712257Y-59272835D01*
X179734028Y-59369597D01*
X179755800Y-59417978D01*
X179799342Y-59466359D01*
X179864657Y-59490550D01*
X179973514Y-59490550D01*
X179516314Y-59490550D02*
X179516314Y-58982550D01*
X179211514Y-58982550D02*
X179124428Y-58982550D01*
X179080886Y-59006740D01*
X179037343Y-59055121D01*
X179015571Y-59151883D01*
X179015571Y-59321216D01*
X179037343Y-59417978D01*
X179080886Y-59466359D01*
X179124428Y-59490550D01*
X179211514Y-59490550D01*
X179255057Y-59466359D01*
X179298600Y-59417978D01*
X179320371Y-59321216D01*
X179320371Y-59151883D01*
X179298600Y-59055121D01*
X179255057Y-59006740D01*
X179211514Y-58982550D01*
X178819629Y-59490550D02*
X178819629Y-58982550D01*
X178710772Y-58982550D01*
X178645457Y-59006740D01*
X178601915Y-59055121D01*
X178580143Y-59103502D01*
X178558372Y-59200264D01*
X178558372Y-59272835D01*
X178580143Y-59369597D01*
X178601915Y-59417978D01*
X178645457Y-59466359D01*
X178710772Y-59490550D01*
X178819629Y-59490550D01*
X178362429Y-59224454D02*
X178210029Y-59224454D01*
X178144715Y-59490550D02*
X178362429Y-59490550D01*
X178362429Y-58982550D01*
X178144715Y-58982550D01*
X181899862Y-72751043D02*
X181399482Y-72751043D01*
X181399482Y-72859900D01*
X181423310Y-72925215D01*
X181470965Y-72968757D01*
X181518620Y-72990529D01*
X181613931Y-73012300D01*
X181685414Y-73012300D01*
X181780724Y-72990529D01*
X181828380Y-72968757D01*
X181876035Y-72925215D01*
X181899862Y-72859900D01*
X181899862Y-72751043D01*
X181399482Y-73164700D02*
X181399482Y-73469500D01*
X181899862Y-73273557D01*
X180140550Y-72121486D02*
X179632550Y-72121486D01*
X179632550Y-72230343D01*
X179656740Y-72295658D01*
X179705121Y-72339200D01*
X179753502Y-72360972D01*
X179850264Y-72382743D01*
X179922835Y-72382743D01*
X180019597Y-72360972D01*
X180067978Y-72339200D01*
X180116359Y-72295658D01*
X180140550Y-72230343D01*
X180140550Y-72121486D01*
X180140550Y-72578686D02*
X179632550Y-72578686D01*
X179632550Y-72883486D02*
X179632550Y-72970572D01*
X179656740Y-73014114D01*
X179705121Y-73057657D01*
X179801883Y-73079429D01*
X179971216Y-73079429D01*
X180067978Y-73057657D01*
X180116359Y-73014114D01*
X180140550Y-72970572D01*
X180140550Y-72883486D01*
X180116359Y-72839943D01*
X180067978Y-72796400D01*
X179971216Y-72774629D01*
X179801883Y-72774629D01*
X179705121Y-72796400D01*
X179656740Y-72839943D01*
X179632550Y-72883486D01*
X180140550Y-73275371D02*
X179632550Y-73275371D01*
X179632550Y-73384228D01*
X179656740Y-73449543D01*
X179705121Y-73493085D01*
X179753502Y-73514857D01*
X179850264Y-73536628D01*
X179922835Y-73536628D01*
X180019597Y-73514857D01*
X180067978Y-73493085D01*
X180116359Y-73449543D01*
X180140550Y-73384228D01*
X180140550Y-73275371D01*
X179874454Y-73732571D02*
X179874454Y-73884971D01*
X180140550Y-73950285D02*
X180140550Y-73732571D01*
X179632550Y-73732571D01*
X179632550Y-73950285D01*
X185074862Y-74656043D02*
X184574482Y-74656043D01*
X184574482Y-74764900D01*
X184598310Y-74830215D01*
X184645965Y-74873757D01*
X184693620Y-74895529D01*
X184788931Y-74917300D01*
X184860414Y-74917300D01*
X184955724Y-74895529D01*
X185003380Y-74873757D01*
X185051035Y-74830215D01*
X185074862Y-74764900D01*
X185074862Y-74656043D01*
X184788931Y-75178557D02*
X184765103Y-75135015D01*
X184741276Y-75113243D01*
X184693620Y-75091472D01*
X184669793Y-75091472D01*
X184622138Y-75113243D01*
X184598310Y-75135015D01*
X184574482Y-75178557D01*
X184574482Y-75265643D01*
X184598310Y-75309186D01*
X184622138Y-75330957D01*
X184669793Y-75352729D01*
X184693620Y-75352729D01*
X184741276Y-75330957D01*
X184765103Y-75309186D01*
X184788931Y-75265643D01*
X184788931Y-75178557D01*
X184812759Y-75135015D01*
X184836586Y-75113243D01*
X184884241Y-75091472D01*
X184979552Y-75091472D01*
X185027207Y-75113243D01*
X185051035Y-75135015D01*
X185074862Y-75178557D01*
X185074862Y-75265643D01*
X185051035Y-75309186D01*
X185027207Y-75330957D01*
X184979552Y-75352729D01*
X184884241Y-75352729D01*
X184836586Y-75330957D01*
X184812759Y-75309186D01*
X184788931Y-75265643D01*
X183315550Y-74026486D02*
X182807550Y-74026486D01*
X182807550Y-74135343D01*
X182831740Y-74200658D01*
X182880121Y-74244200D01*
X182928502Y-74265972D01*
X183025264Y-74287743D01*
X183097835Y-74287743D01*
X183194597Y-74265972D01*
X183242978Y-74244200D01*
X183291359Y-74200658D01*
X183315550Y-74135343D01*
X183315550Y-74026486D01*
X183315550Y-74483686D02*
X182807550Y-74483686D01*
X182807550Y-74788486D02*
X182807550Y-74875572D01*
X182831740Y-74919114D01*
X182880121Y-74962657D01*
X182976883Y-74984429D01*
X183146216Y-74984429D01*
X183242978Y-74962657D01*
X183291359Y-74919114D01*
X183315550Y-74875572D01*
X183315550Y-74788486D01*
X183291359Y-74744943D01*
X183242978Y-74701400D01*
X183146216Y-74679629D01*
X182976883Y-74679629D01*
X182880121Y-74701400D01*
X182831740Y-74744943D01*
X182807550Y-74788486D01*
X183315550Y-75180371D02*
X182807550Y-75180371D01*
X182807550Y-75289228D01*
X182831740Y-75354543D01*
X182880121Y-75398085D01*
X182928502Y-75419857D01*
X183025264Y-75441628D01*
X183097835Y-75441628D01*
X183194597Y-75419857D01*
X183242978Y-75398085D01*
X183291359Y-75354543D01*
X183315550Y-75289228D01*
X183315550Y-75180371D01*
X183049454Y-75637571D02*
X183049454Y-75789971D01*
X183315550Y-75855285D02*
X183315550Y-75637571D01*
X182807550Y-75637571D01*
X182807550Y-75855285D01*
X181899862Y-74656043D02*
X181399482Y-74656043D01*
X181399482Y-74764900D01*
X181423310Y-74830215D01*
X181470965Y-74873757D01*
X181518620Y-74895529D01*
X181613931Y-74917300D01*
X181685414Y-74917300D01*
X181780724Y-74895529D01*
X181828380Y-74873757D01*
X181876035Y-74830215D01*
X181899862Y-74764900D01*
X181899862Y-74656043D01*
X181899862Y-75135015D02*
X181899862Y-75222100D01*
X181876035Y-75265643D01*
X181852207Y-75287415D01*
X181780724Y-75330957D01*
X181685414Y-75352729D01*
X181494793Y-75352729D01*
X181447138Y-75330957D01*
X181423310Y-75309186D01*
X181399482Y-75265643D01*
X181399482Y-75178557D01*
X181423310Y-75135015D01*
X181447138Y-75113243D01*
X181494793Y-75091472D01*
X181613931Y-75091472D01*
X181661586Y-75113243D01*
X181685414Y-75135015D01*
X181709241Y-75178557D01*
X181709241Y-75265643D01*
X181685414Y-75309186D01*
X181661586Y-75330957D01*
X181613931Y-75352729D01*
X180140550Y-74026486D02*
X179632550Y-74026486D01*
X179632550Y-74135343D01*
X179656740Y-74200658D01*
X179705121Y-74244200D01*
X179753502Y-74265972D01*
X179850264Y-74287743D01*
X179922835Y-74287743D01*
X180019597Y-74265972D01*
X180067978Y-74244200D01*
X180116359Y-74200658D01*
X180140550Y-74135343D01*
X180140550Y-74026486D01*
X180140550Y-74483686D02*
X179632550Y-74483686D01*
X179632550Y-74788486D02*
X179632550Y-74875572D01*
X179656740Y-74919114D01*
X179705121Y-74962657D01*
X179801883Y-74984429D01*
X179971216Y-74984429D01*
X180067978Y-74962657D01*
X180116359Y-74919114D01*
X180140550Y-74875572D01*
X180140550Y-74788486D01*
X180116359Y-74744943D01*
X180067978Y-74701400D01*
X179971216Y-74679629D01*
X179801883Y-74679629D01*
X179705121Y-74701400D01*
X179656740Y-74744943D01*
X179632550Y-74788486D01*
X180140550Y-75180371D02*
X179632550Y-75180371D01*
X179632550Y-75289228D01*
X179656740Y-75354543D01*
X179705121Y-75398085D01*
X179753502Y-75419857D01*
X179850264Y-75441628D01*
X179922835Y-75441628D01*
X180019597Y-75419857D01*
X180067978Y-75398085D01*
X180116359Y-75354543D01*
X180140550Y-75289228D01*
X180140550Y-75180371D01*
X179874454Y-75637571D02*
X179874454Y-75789971D01*
X180140550Y-75855285D02*
X180140550Y-75637571D01*
X179632550Y-75637571D01*
X179632550Y-75855285D01*
X178851862Y-68821300D02*
X178613586Y-68668900D01*
X178851862Y-68560043D02*
X178351482Y-68560043D01*
X178351482Y-68734215D01*
X178375310Y-68777757D01*
X178399138Y-68799529D01*
X178446793Y-68821300D01*
X178518276Y-68821300D01*
X178565931Y-68799529D01*
X178589759Y-68777757D01*
X178613586Y-68734215D01*
X178613586Y-68560043D01*
X178851862Y-69256729D02*
X178851862Y-68995472D01*
X178851862Y-69126100D02*
X178351482Y-69126100D01*
X178422965Y-69082557D01*
X178470620Y-69039015D01*
X178494448Y-68995472D01*
X177092550Y-68561857D02*
X177092550Y-68300600D01*
X177092550Y-68431228D02*
X176584550Y-68431228D01*
X176657121Y-68387685D01*
X176705502Y-68344143D01*
X176729692Y-68300600D01*
X176584550Y-68844886D02*
X176584550Y-68888429D01*
X176608740Y-68931972D01*
X176632930Y-68953743D01*
X176681311Y-68975514D01*
X176778073Y-68997286D01*
X176899026Y-68997286D01*
X176995788Y-68975514D01*
X177044169Y-68953743D01*
X177068359Y-68931972D01*
X177092550Y-68888429D01*
X177092550Y-68844886D01*
X177068359Y-68801343D01*
X177044169Y-68779572D01*
X176995788Y-68757800D01*
X176899026Y-68736029D01*
X176778073Y-68736029D01*
X176681311Y-68757800D01*
X176632930Y-68779572D01*
X176608740Y-68801343D01*
X176584550Y-68844886D01*
X177092550Y-69193229D02*
X176584550Y-69193229D01*
X176899026Y-69236772D02*
X177092550Y-69367401D01*
X176753883Y-69367401D02*
X176947407Y-69193229D01*
X178851862Y-70472300D02*
X178613586Y-70319900D01*
X178851862Y-70211043D02*
X178351482Y-70211043D01*
X178351482Y-70385215D01*
X178375310Y-70428757D01*
X178399138Y-70450529D01*
X178446793Y-70472300D01*
X178518276Y-70472300D01*
X178565931Y-70450529D01*
X178589759Y-70428757D01*
X178613586Y-70385215D01*
X178613586Y-70211043D01*
X178399138Y-70646472D02*
X178375310Y-70668243D01*
X178351482Y-70711786D01*
X178351482Y-70820643D01*
X178375310Y-70864186D01*
X178399138Y-70885957D01*
X178446793Y-70907729D01*
X178494448Y-70907729D01*
X178565931Y-70885957D01*
X178851862Y-70624700D01*
X178851862Y-70907729D01*
X176584550Y-70191085D02*
X176584550Y-69973371D01*
X176826454Y-69951600D01*
X176802264Y-69973371D01*
X176778073Y-70016914D01*
X176778073Y-70125771D01*
X176802264Y-70169314D01*
X176826454Y-70191085D01*
X176874835Y-70212857D01*
X176995788Y-70212857D01*
X177044169Y-70191085D01*
X177068359Y-70169314D01*
X177092550Y-70125771D01*
X177092550Y-70016914D01*
X177068359Y-69973371D01*
X177044169Y-69951600D01*
X176584550Y-70495886D02*
X176584550Y-70539429D01*
X176608740Y-70582972D01*
X176632930Y-70604743D01*
X176681311Y-70626514D01*
X176778073Y-70648286D01*
X176899026Y-70648286D01*
X176995788Y-70626514D01*
X177044169Y-70604743D01*
X177068359Y-70582972D01*
X177092550Y-70539429D01*
X177092550Y-70495886D01*
X177068359Y-70452343D01*
X177044169Y-70430572D01*
X176995788Y-70408800D01*
X176899026Y-70387029D01*
X176778073Y-70387029D01*
X176681311Y-70408800D01*
X176632930Y-70430572D01*
X176608740Y-70452343D01*
X176584550Y-70495886D01*
X177092550Y-70844229D02*
X176584550Y-70844229D01*
X176899026Y-70887772D02*
X177092550Y-71018401D01*
X176753883Y-71018401D02*
X176947407Y-70844229D01*
M02*
