%FSLAX46Y46*%
G04 Gerber Fmt 4.6, Leading zero omitted, Abs format (unit mm)*
G04 Created by KiCad (PCBNEW (2014-10-27 BZR 5228)-product) date 06.12.2014 02:57:52*
%MOMM*%
G01*
G04 APERTURE LIST*
%ADD10C,0.100000*%
%ADD11R,1.727200X1.727200*%
%ADD12O,1.727200X1.727200*%
%ADD13C,3.810000*%
%ADD14R,3.810000X3.810000*%
%ADD15C,4.064000*%
%ADD16R,1.143000X0.635000*%
%ADD17R,0.635000X1.143000*%
%ADD18C,1.500000*%
%ADD19C,2.200000*%
%ADD20C,0.889000*%
%ADD21C,1.000000*%
%ADD22C,0.254000*%
%ADD23C,0.600000*%
%ADD24C,2.000000*%
G04 APERTURE END LIST*
D10*
D11*
X186690000Y-32385000D03*
D12*
X186690000Y-34925000D03*
X184150000Y-32385000D03*
X184150000Y-34925000D03*
X181610000Y-32385000D03*
X181610000Y-34925000D03*
X179070000Y-32385000D03*
X179070000Y-34925000D03*
X176530000Y-32385000D03*
X176530000Y-34925000D03*
D13*
X202565000Y-33655000D03*
X207645000Y-33655000D03*
D14*
X197485000Y-33655000D03*
D13*
X212725000Y-33655000D03*
D15*
X210820000Y-41910000D03*
X210820000Y-69850000D03*
D16*
X185420000Y-67437000D03*
X185420000Y-65913000D03*
X180975000Y-63373000D03*
X180975000Y-64897000D03*
D17*
X184023000Y-73025000D03*
X185547000Y-73025000D03*
D16*
X185420000Y-70612000D03*
X185420000Y-69088000D03*
X183515000Y-67437000D03*
X183515000Y-65913000D03*
X183515000Y-70612000D03*
X183515000Y-69088000D03*
X180975000Y-60198000D03*
X180975000Y-61722000D03*
X179070000Y-63373000D03*
X179070000Y-64897000D03*
X179070000Y-60198000D03*
X179070000Y-61722000D03*
D17*
X180848000Y-73025000D03*
X182372000Y-73025000D03*
X184023000Y-74930000D03*
X185547000Y-74930000D03*
X180848000Y-74930000D03*
X182372000Y-74930000D03*
X177800000Y-68834000D03*
X179324000Y-68834000D03*
X177800000Y-70485000D03*
X179324000Y-70485000D03*
D15*
X210820000Y-55880000D03*
D18*
X181771020Y-68630291D03*
X186690000Y-48895000D03*
D19*
X184150000Y-56515000D03*
D20*
X205740000Y-40005000D03*
X205740000Y-67945000D03*
X174625000Y-53975000D03*
X205740000Y-53975000D03*
D21*
X198374000Y-45974000D03*
D20*
X182880000Y-62865000D03*
X198763940Y-75448770D03*
X214630000Y-71138054D03*
X214630000Y-57253510D03*
X214630000Y-43180000D03*
D18*
X196850000Y-43815000D03*
X196850000Y-57785000D03*
X196850000Y-71755000D03*
X196850000Y-40005000D03*
D20*
X196215000Y-53975000D03*
X196215000Y-67945000D03*
D21*
X177632373Y-67521715D03*
X177429033Y-71322982D03*
D20*
X190500000Y-52705000D03*
X190500000Y-38735000D03*
X191245790Y-66785790D03*
D22*
X179324000Y-70485000D02*
X179324000Y-72072500D01*
X179324000Y-72072500D02*
X180276500Y-73025000D01*
X180276500Y-73025000D02*
X180848000Y-73025000D01*
X179324000Y-70485000D02*
X179324000Y-68834000D01*
X179324000Y-68834000D02*
X179895500Y-68834000D01*
X179895500Y-68834000D02*
X180099209Y-68630291D01*
X180099209Y-68630291D02*
X180710360Y-68630291D01*
D23*
X180710360Y-68630291D02*
X181771020Y-68630291D01*
X176530000Y-64449931D02*
X180710360Y-68630291D01*
X176530000Y-55245000D02*
X176530000Y-64449931D01*
X177165000Y-54610000D02*
X176530000Y-55245000D01*
X181610000Y-54610000D02*
X177165000Y-54610000D01*
X186690000Y-49530000D02*
X186690000Y-48895000D01*
X181610000Y-54610000D02*
X186690000Y-49530000D01*
X180975000Y-60198000D02*
X180975000Y-55245000D01*
X180975000Y-55245000D02*
X181610000Y-54610000D01*
D22*
X183515000Y-69088000D02*
X183515000Y-67437000D01*
X183515000Y-65913000D02*
X185420000Y-65913000D01*
D24*
X205740000Y-53975000D02*
X205740000Y-55530634D01*
D22*
X179070000Y-59626500D02*
X178435000Y-58991500D01*
X179070000Y-60198000D02*
X179070000Y-59626500D01*
X179070000Y-63373000D02*
X179070000Y-61722000D01*
X180975000Y-64897000D02*
X179070000Y-64897000D01*
X182435501Y-63309499D02*
X182880000Y-62865000D01*
X182435501Y-63690499D02*
X182435501Y-63309499D01*
X181229000Y-64897000D02*
X182435501Y-63690499D01*
X180975000Y-64897000D02*
X181229000Y-64897000D01*
X184023000Y-74930000D02*
X182372000Y-74930000D01*
X185547000Y-74930000D02*
X185547000Y-73025000D01*
D24*
X214630000Y-57253510D02*
X214630000Y-71138054D01*
X214630000Y-43180000D02*
X214630000Y-57253510D01*
X212725000Y-33655000D02*
X214630000Y-35560000D01*
X214630000Y-35560000D02*
X214630000Y-43180000D01*
D22*
X214630000Y-57253510D02*
X214630000Y-43815000D01*
D23*
X196850000Y-42754340D02*
X196850000Y-43815000D01*
X189020660Y-34925000D02*
X196850000Y-42754340D01*
X186690000Y-34925000D02*
X189020660Y-34925000D01*
X195465001Y-45199999D02*
X196850000Y-43815000D01*
X194945000Y-59092667D02*
X194945000Y-45720000D01*
X194945000Y-45720000D02*
X195465001Y-45199999D01*
X195542333Y-59092667D02*
X196100001Y-58534999D01*
X194945000Y-59092667D02*
X195542333Y-59092667D01*
X196100001Y-58534999D02*
X196850000Y-57785000D01*
X196100001Y-71005001D02*
X196850000Y-71755000D01*
X194945000Y-69850000D02*
X196100001Y-71005001D01*
X194945000Y-59092667D02*
X194945000Y-69850000D01*
D22*
X185420000Y-67437000D02*
X185420000Y-69088000D01*
X180975000Y-63373000D02*
X180975000Y-61722000D01*
X184023000Y-73025000D02*
X182372000Y-73025000D01*
X177800000Y-68834000D02*
X177800000Y-67689342D01*
X177800000Y-67689342D02*
X177632373Y-67521715D01*
X177800000Y-70485000D02*
X177800000Y-70952015D01*
X177800000Y-70952015D02*
X177429033Y-71322982D01*
X180365399Y-31787591D02*
X180895029Y-31257961D01*
X180895029Y-31257961D02*
X181012591Y-31140399D01*
X180314601Y-31775399D02*
X180832039Y-31257961D01*
X180832039Y-31257961D02*
X180895029Y-31257961D01*
X190500000Y-46355000D02*
X180314601Y-36169601D01*
X180314601Y-36169601D02*
X180314601Y-31775399D01*
X190500000Y-52705000D02*
X190500000Y-46355000D01*
X181012591Y-31140399D02*
X182905399Y-31140399D01*
X182905399Y-31140399D02*
X183286401Y-31521401D01*
X183286401Y-31521401D02*
X184150000Y-32385000D01*
X190500000Y-38735000D02*
X186117990Y-38735000D01*
X186117990Y-38735000D02*
X182854601Y-35471611D01*
X182854601Y-35471611D02*
X182854601Y-33629601D01*
X182854601Y-33629601D02*
X182473599Y-33248599D01*
X182473599Y-33248599D02*
X181610000Y-32385000D01*
X191245790Y-66785790D02*
X189865000Y-65405000D01*
X178206401Y-33248599D02*
X179070000Y-32385000D01*
X189865000Y-65405000D02*
X189865000Y-53340000D01*
X189865000Y-53340000D02*
X189674499Y-53149499D01*
X189674499Y-53149499D02*
X189674499Y-46545501D01*
X189674499Y-46545501D02*
X188848491Y-46545501D01*
X188848491Y-46545501D02*
X177825399Y-35522409D01*
X177825399Y-35522409D02*
X177825399Y-33629601D01*
X177825399Y-33629601D02*
X178206401Y-33248599D01*
G36*
X180040000Y-59345974D02*
X179865173Y-59520801D01*
X179768500Y-59754190D01*
X179768500Y-60006809D01*
X179768500Y-60641809D01*
X179832488Y-60796290D01*
X179767810Y-60769500D01*
X179515191Y-60769500D01*
X178372191Y-60769500D01*
X178138802Y-60866173D01*
X177960173Y-61044801D01*
X177863500Y-61278190D01*
X177863500Y-61530809D01*
X177863500Y-62165809D01*
X177960173Y-62399198D01*
X178108474Y-62547500D01*
X177960173Y-62695801D01*
X177863500Y-62929190D01*
X177863500Y-63181809D01*
X177863500Y-63816809D01*
X177960173Y-64050198D01*
X178044974Y-64134999D01*
X177960173Y-64219801D01*
X177863500Y-64453190D01*
X177863500Y-64461141D01*
X177465000Y-64062641D01*
X177465000Y-55632290D01*
X177552290Y-55545000D01*
X180040000Y-55545000D01*
X180040000Y-59345974D01*
X180040000Y-59345974D01*
G37*
X180040000Y-59345974D02*
X179865173Y-59520801D01*
X179768500Y-59754190D01*
X179768500Y-60006809D01*
X179768500Y-60641809D01*
X179832488Y-60796290D01*
X179767810Y-60769500D01*
X179515191Y-60769500D01*
X178372191Y-60769500D01*
X178138802Y-60866173D01*
X177960173Y-61044801D01*
X177863500Y-61278190D01*
X177863500Y-61530809D01*
X177863500Y-62165809D01*
X177960173Y-62399198D01*
X178108474Y-62547500D01*
X177960173Y-62695801D01*
X177863500Y-62929190D01*
X177863500Y-63181809D01*
X177863500Y-63816809D01*
X177960173Y-64050198D01*
X178044974Y-64134999D01*
X177960173Y-64219801D01*
X177863500Y-64453190D01*
X177863500Y-64461141D01*
X177465000Y-64062641D01*
X177465000Y-55632290D01*
X177552290Y-55545000D01*
X180040000Y-55545000D01*
X180040000Y-59345974D01*
G36*
X215773000Y-80518000D02*
X215011000Y-80518000D01*
X215011000Y-79375000D01*
X215011000Y-73025000D01*
X208915000Y-73025000D01*
X208915000Y-79375000D01*
X215011000Y-79375000D01*
X215011000Y-80518000D01*
X207391000Y-80518000D01*
X207391000Y-79375000D01*
X207391000Y-73025000D01*
X207391000Y-65405000D01*
X207391000Y-59055000D01*
X207391000Y-51435000D01*
X207391000Y-45085000D01*
X201295000Y-45085000D01*
X201295000Y-51435000D01*
X207391000Y-51435000D01*
X207391000Y-59055000D01*
X201295000Y-59055000D01*
X201295000Y-65405000D01*
X207391000Y-65405000D01*
X207391000Y-73025000D01*
X201295000Y-73025000D01*
X201295000Y-79375000D01*
X207391000Y-79375000D01*
X207391000Y-80518000D01*
X199843627Y-80518000D01*
X199843627Y-75234986D01*
X199679629Y-74838081D01*
X199376226Y-74534148D01*
X198979608Y-74369457D01*
X198550156Y-74369083D01*
X198153251Y-74533081D01*
X197849318Y-74836484D01*
X197684627Y-75233102D01*
X197684253Y-75662554D01*
X197848251Y-76059459D01*
X198151654Y-76363392D01*
X198548272Y-76528083D01*
X198977724Y-76528457D01*
X199374629Y-76364459D01*
X199678562Y-76061056D01*
X199843253Y-75664438D01*
X199843627Y-75234986D01*
X199843627Y-80518000D01*
X171577000Y-80518000D01*
X171577000Y-52197000D01*
X182700709Y-52197000D01*
X181222710Y-53675000D01*
X177165000Y-53675000D01*
X176807191Y-53746173D01*
X176503855Y-53948855D01*
X175868855Y-54583855D01*
X175666173Y-54887191D01*
X175595000Y-55245000D01*
X175595000Y-64449931D01*
X175666173Y-64807740D01*
X175868855Y-65111076D01*
X177221281Y-66463502D01*
X176990287Y-66558948D01*
X176670728Y-66877950D01*
X176497570Y-67294959D01*
X176497176Y-67746490D01*
X176669606Y-68163801D01*
X176847500Y-68342005D01*
X176847500Y-68388809D01*
X176847500Y-69531809D01*
X176900391Y-69659499D01*
X176847500Y-69787190D01*
X176847500Y-70039809D01*
X176847500Y-70335194D01*
X176786947Y-70360215D01*
X176467388Y-70679217D01*
X176294230Y-71096226D01*
X176293836Y-71547757D01*
X176466266Y-71965068D01*
X176785268Y-72284627D01*
X177202277Y-72457785D01*
X177653808Y-72458179D01*
X178071119Y-72285749D01*
X178390678Y-71966747D01*
X178562000Y-71554159D01*
X178562000Y-72072500D01*
X178620004Y-72364105D01*
X178785185Y-72611315D01*
X179737684Y-73563815D01*
X179737685Y-73563815D01*
X179895500Y-73669264D01*
X179895500Y-73722809D01*
X179992173Y-73956198D01*
X180170801Y-74134827D01*
X180404190Y-74231500D01*
X180656809Y-74231500D01*
X181291809Y-74231500D01*
X181446290Y-74167511D01*
X181419500Y-74232190D01*
X181419500Y-74484809D01*
X181419500Y-75627809D01*
X181516173Y-75861198D01*
X181694801Y-76039827D01*
X181928190Y-76136500D01*
X182180809Y-76136500D01*
X182815809Y-76136500D01*
X183049198Y-76039827D01*
X183197500Y-75891525D01*
X183345801Y-76039827D01*
X183579190Y-76136500D01*
X183831809Y-76136500D01*
X184466809Y-76136500D01*
X184700198Y-76039827D01*
X184784999Y-75955025D01*
X184869801Y-76039827D01*
X185103190Y-76136500D01*
X185355809Y-76136500D01*
X185990809Y-76136500D01*
X186224198Y-76039827D01*
X186402827Y-75861199D01*
X186499500Y-75627810D01*
X186499500Y-75375191D01*
X186499500Y-74232191D01*
X186402827Y-73998802D01*
X186381525Y-73977500D01*
X186402827Y-73956199D01*
X186499500Y-73722810D01*
X186499500Y-73470191D01*
X186499500Y-72327191D01*
X186402827Y-72093802D01*
X186224199Y-71915173D01*
X185990810Y-71818500D01*
X185738191Y-71818500D01*
X185103191Y-71818500D01*
X184869802Y-71915173D01*
X184785000Y-71999974D01*
X184700199Y-71915173D01*
X184466810Y-71818500D01*
X184214191Y-71818500D01*
X183579191Y-71818500D01*
X183345802Y-71915173D01*
X183197499Y-72063474D01*
X183049199Y-71915173D01*
X182815810Y-71818500D01*
X182563191Y-71818500D01*
X181928191Y-71818500D01*
X181694802Y-71915173D01*
X181610000Y-71999974D01*
X181525199Y-71915173D01*
X181291810Y-71818500D01*
X181039191Y-71818500D01*
X180404191Y-71818500D01*
X180222775Y-71893644D01*
X180086000Y-71756869D01*
X180086000Y-71510025D01*
X180179827Y-71416199D01*
X180276500Y-71182810D01*
X180276500Y-70930191D01*
X180276500Y-69787191D01*
X180223608Y-69659500D01*
X180276500Y-69531810D01*
X180276500Y-69478263D01*
X180302661Y-69460783D01*
X180352551Y-69494118D01*
X180710360Y-69565291D01*
X180747410Y-69565291D01*
X180985456Y-69803752D01*
X181494318Y-70015050D01*
X182045305Y-70015531D01*
X182477094Y-69837119D01*
X182583801Y-69943827D01*
X182817190Y-70040500D01*
X183069809Y-70040500D01*
X184212809Y-70040500D01*
X184277488Y-70013708D01*
X184213500Y-70168190D01*
X184213500Y-70420809D01*
X184213500Y-71055809D01*
X184310173Y-71289198D01*
X184488801Y-71467827D01*
X184722190Y-71564500D01*
X184974809Y-71564500D01*
X186117809Y-71564500D01*
X186351198Y-71467827D01*
X186529827Y-71289199D01*
X186626500Y-71055810D01*
X186626500Y-70803191D01*
X186626500Y-70168191D01*
X186529827Y-69934802D01*
X186445025Y-69850000D01*
X186529827Y-69765199D01*
X186626500Y-69531810D01*
X186626500Y-69279191D01*
X186626500Y-68644191D01*
X186529827Y-68410802D01*
X186381525Y-68262499D01*
X186529827Y-68114199D01*
X186626500Y-67880810D01*
X186626500Y-67628191D01*
X186626500Y-66993191D01*
X186529827Y-66759802D01*
X186445025Y-66675000D01*
X186529827Y-66590199D01*
X186626500Y-66356810D01*
X186626500Y-66104191D01*
X186626500Y-65469191D01*
X186529827Y-65235802D01*
X186351199Y-65057173D01*
X186117810Y-64960500D01*
X185865191Y-64960500D01*
X184722191Y-64960500D01*
X184488802Y-65057173D01*
X184467500Y-65078474D01*
X184446199Y-65057173D01*
X184212810Y-64960500D01*
X183960191Y-64960500D01*
X182817191Y-64960500D01*
X182583802Y-65057173D01*
X182405173Y-65235801D01*
X182308500Y-65469190D01*
X182308500Y-65721809D01*
X182308500Y-66356809D01*
X182405173Y-66590198D01*
X182489974Y-66674999D01*
X182405173Y-66759801D01*
X182308500Y-66993190D01*
X182308500Y-67245809D01*
X182308500Y-67353816D01*
X182047722Y-67245532D01*
X181496735Y-67245051D01*
X180987505Y-67455460D01*
X180922605Y-67520246D01*
X179251859Y-65849500D01*
X179767809Y-65849500D01*
X180001198Y-65752827D01*
X180022499Y-65731525D01*
X180043801Y-65752827D01*
X180277190Y-65849500D01*
X180529809Y-65849500D01*
X181672809Y-65849500D01*
X181906198Y-65752827D01*
X182084827Y-65574199D01*
X182181500Y-65340810D01*
X182181500Y-65088191D01*
X182181500Y-65022130D01*
X182974316Y-64229314D01*
X183139497Y-63982104D01*
X183151699Y-63920756D01*
X183490689Y-63780689D01*
X183794622Y-63477286D01*
X183959313Y-63080668D01*
X183959687Y-62651216D01*
X183795689Y-62254311D01*
X183492286Y-61950378D01*
X183095668Y-61785687D01*
X182666216Y-61785313D01*
X182269311Y-61949311D01*
X182181500Y-62036968D01*
X182181500Y-61913191D01*
X182181500Y-61278191D01*
X182084827Y-61044802D01*
X182000025Y-60960000D01*
X182084827Y-60875199D01*
X182181500Y-60641810D01*
X182181500Y-60389191D01*
X182181500Y-59754191D01*
X182084827Y-59520802D01*
X181910000Y-59345974D01*
X181910000Y-55632290D01*
X182271145Y-55271145D01*
X185345290Y-52197000D01*
X187198000Y-52197000D01*
X187198000Y-73159033D01*
X199517000Y-73151927D01*
X199517000Y-39952395D01*
X195707000Y-36142395D01*
X195707000Y-29972000D01*
X215773000Y-29972000D01*
X215773000Y-34390760D01*
X215264803Y-33882563D01*
X215265440Y-33151979D01*
X214879563Y-32218085D01*
X214165673Y-31502948D01*
X213232454Y-31115441D01*
X212221979Y-31114560D01*
X211288085Y-31500437D01*
X210572948Y-32214327D01*
X210185441Y-33147546D01*
X210185437Y-33151972D01*
X209799563Y-32218085D01*
X209085673Y-31502948D01*
X208152454Y-31115441D01*
X207141979Y-31114560D01*
X206208085Y-31500437D01*
X205492948Y-32214327D01*
X205105441Y-33147546D01*
X205105437Y-33151972D01*
X204719563Y-32218085D01*
X204005673Y-31502948D01*
X203072454Y-31115441D01*
X202061979Y-31114560D01*
X201128085Y-31500437D01*
X200412948Y-32214327D01*
X200025441Y-33147546D01*
X200024560Y-34158021D01*
X200410437Y-35091915D01*
X201124327Y-35807052D01*
X202057546Y-36194559D01*
X203068021Y-36195440D01*
X204001915Y-35809563D01*
X204717052Y-35095673D01*
X205104559Y-34162454D01*
X205104562Y-34158027D01*
X205490437Y-35091915D01*
X206204327Y-35807052D01*
X207137546Y-36194559D01*
X208148021Y-36195440D01*
X209081915Y-35809563D01*
X209797052Y-35095673D01*
X210184559Y-34162454D01*
X210184562Y-34158027D01*
X210570437Y-35091915D01*
X211284327Y-35807052D01*
X212217546Y-36194559D01*
X212952960Y-36195200D01*
X212995000Y-36237239D01*
X212995000Y-40313795D01*
X212332707Y-39650345D01*
X211352827Y-39243464D01*
X210291828Y-39242538D01*
X209311239Y-39647709D01*
X208560345Y-40397293D01*
X208153464Y-41377173D01*
X208152538Y-42438172D01*
X208557709Y-43418761D01*
X209307293Y-44169655D01*
X210287173Y-44576536D01*
X211348172Y-44577462D01*
X212328761Y-44172291D01*
X212995000Y-43507214D01*
X212995000Y-45085000D01*
X208915000Y-45085000D01*
X208915000Y-51435000D01*
X212995000Y-51435000D01*
X212995000Y-54283795D01*
X212332707Y-53620345D01*
X211352827Y-53213464D01*
X210291828Y-53212538D01*
X209311239Y-53617709D01*
X208560345Y-54367293D01*
X208153464Y-55347173D01*
X208152538Y-56408172D01*
X208557709Y-57388761D01*
X209307293Y-58139655D01*
X210287173Y-58546536D01*
X211348172Y-58547462D01*
X212328761Y-58142291D01*
X212995000Y-57477214D01*
X212995000Y-59055000D01*
X208915000Y-59055000D01*
X208915000Y-65405000D01*
X212995000Y-65405000D01*
X212995000Y-68253795D01*
X212332707Y-67590345D01*
X211352827Y-67183464D01*
X210291828Y-67182538D01*
X209311239Y-67587709D01*
X208560345Y-68337293D01*
X208153464Y-69317173D01*
X208152538Y-70378172D01*
X208557709Y-71358761D01*
X209307293Y-72109655D01*
X210287173Y-72516536D01*
X211348172Y-72517462D01*
X212328761Y-72112291D01*
X213046307Y-71395995D01*
X213119457Y-71763741D01*
X213473880Y-72294174D01*
X214004313Y-72648597D01*
X214630000Y-72773054D01*
X215255687Y-72648597D01*
X215773000Y-72302940D01*
X215773000Y-80518000D01*
X215773000Y-80518000D01*
G37*
X215773000Y-80518000D02*
X215011000Y-80518000D01*
X215011000Y-79375000D01*
X215011000Y-73025000D01*
X208915000Y-73025000D01*
X208915000Y-79375000D01*
X215011000Y-79375000D01*
X215011000Y-80518000D01*
X207391000Y-80518000D01*
X207391000Y-79375000D01*
X207391000Y-73025000D01*
X207391000Y-65405000D01*
X207391000Y-59055000D01*
X207391000Y-51435000D01*
X207391000Y-45085000D01*
X201295000Y-45085000D01*
X201295000Y-51435000D01*
X207391000Y-51435000D01*
X207391000Y-59055000D01*
X201295000Y-59055000D01*
X201295000Y-65405000D01*
X207391000Y-65405000D01*
X207391000Y-73025000D01*
X201295000Y-73025000D01*
X201295000Y-79375000D01*
X207391000Y-79375000D01*
X207391000Y-80518000D01*
X199843627Y-80518000D01*
X199843627Y-75234986D01*
X199679629Y-74838081D01*
X199376226Y-74534148D01*
X198979608Y-74369457D01*
X198550156Y-74369083D01*
X198153251Y-74533081D01*
X197849318Y-74836484D01*
X197684627Y-75233102D01*
X197684253Y-75662554D01*
X197848251Y-76059459D01*
X198151654Y-76363392D01*
X198548272Y-76528083D01*
X198977724Y-76528457D01*
X199374629Y-76364459D01*
X199678562Y-76061056D01*
X199843253Y-75664438D01*
X199843627Y-75234986D01*
X199843627Y-80518000D01*
X171577000Y-80518000D01*
X171577000Y-52197000D01*
X182700709Y-52197000D01*
X181222710Y-53675000D01*
X177165000Y-53675000D01*
X176807191Y-53746173D01*
X176503855Y-53948855D01*
X175868855Y-54583855D01*
X175666173Y-54887191D01*
X175595000Y-55245000D01*
X175595000Y-64449931D01*
X175666173Y-64807740D01*
X175868855Y-65111076D01*
X177221281Y-66463502D01*
X176990287Y-66558948D01*
X176670728Y-66877950D01*
X176497570Y-67294959D01*
X176497176Y-67746490D01*
X176669606Y-68163801D01*
X176847500Y-68342005D01*
X176847500Y-68388809D01*
X176847500Y-69531809D01*
X176900391Y-69659499D01*
X176847500Y-69787190D01*
X176847500Y-70039809D01*
X176847500Y-70335194D01*
X176786947Y-70360215D01*
X176467388Y-70679217D01*
X176294230Y-71096226D01*
X176293836Y-71547757D01*
X176466266Y-71965068D01*
X176785268Y-72284627D01*
X177202277Y-72457785D01*
X177653808Y-72458179D01*
X178071119Y-72285749D01*
X178390678Y-71966747D01*
X178562000Y-71554159D01*
X178562000Y-72072500D01*
X178620004Y-72364105D01*
X178785185Y-72611315D01*
X179737684Y-73563815D01*
X179737685Y-73563815D01*
X179895500Y-73669264D01*
X179895500Y-73722809D01*
X179992173Y-73956198D01*
X180170801Y-74134827D01*
X180404190Y-74231500D01*
X180656809Y-74231500D01*
X181291809Y-74231500D01*
X181446290Y-74167511D01*
X181419500Y-74232190D01*
X181419500Y-74484809D01*
X181419500Y-75627809D01*
X181516173Y-75861198D01*
X181694801Y-76039827D01*
X181928190Y-76136500D01*
X182180809Y-76136500D01*
X182815809Y-76136500D01*
X183049198Y-76039827D01*
X183197500Y-75891525D01*
X183345801Y-76039827D01*
X183579190Y-76136500D01*
X183831809Y-76136500D01*
X184466809Y-76136500D01*
X184700198Y-76039827D01*
X184784999Y-75955025D01*
X184869801Y-76039827D01*
X185103190Y-76136500D01*
X185355809Y-76136500D01*
X185990809Y-76136500D01*
X186224198Y-76039827D01*
X186402827Y-75861199D01*
X186499500Y-75627810D01*
X186499500Y-75375191D01*
X186499500Y-74232191D01*
X186402827Y-73998802D01*
X186381525Y-73977500D01*
X186402827Y-73956199D01*
X186499500Y-73722810D01*
X186499500Y-73470191D01*
X186499500Y-72327191D01*
X186402827Y-72093802D01*
X186224199Y-71915173D01*
X185990810Y-71818500D01*
X185738191Y-71818500D01*
X185103191Y-71818500D01*
X184869802Y-71915173D01*
X184785000Y-71999974D01*
X184700199Y-71915173D01*
X184466810Y-71818500D01*
X184214191Y-71818500D01*
X183579191Y-71818500D01*
X183345802Y-71915173D01*
X183197499Y-72063474D01*
X183049199Y-71915173D01*
X182815810Y-71818500D01*
X182563191Y-71818500D01*
X181928191Y-71818500D01*
X181694802Y-71915173D01*
X181610000Y-71999974D01*
X181525199Y-71915173D01*
X181291810Y-71818500D01*
X181039191Y-71818500D01*
X180404191Y-71818500D01*
X180222775Y-71893644D01*
X180086000Y-71756869D01*
X180086000Y-71510025D01*
X180179827Y-71416199D01*
X180276500Y-71182810D01*
X180276500Y-70930191D01*
X180276500Y-69787191D01*
X180223608Y-69659500D01*
X180276500Y-69531810D01*
X180276500Y-69478263D01*
X180302661Y-69460783D01*
X180352551Y-69494118D01*
X180710360Y-69565291D01*
X180747410Y-69565291D01*
X180985456Y-69803752D01*
X181494318Y-70015050D01*
X182045305Y-70015531D01*
X182477094Y-69837119D01*
X182583801Y-69943827D01*
X182817190Y-70040500D01*
X183069809Y-70040500D01*
X184212809Y-70040500D01*
X184277488Y-70013708D01*
X184213500Y-70168190D01*
X184213500Y-70420809D01*
X184213500Y-71055809D01*
X184310173Y-71289198D01*
X184488801Y-71467827D01*
X184722190Y-71564500D01*
X184974809Y-71564500D01*
X186117809Y-71564500D01*
X186351198Y-71467827D01*
X186529827Y-71289199D01*
X186626500Y-71055810D01*
X186626500Y-70803191D01*
X186626500Y-70168191D01*
X186529827Y-69934802D01*
X186445025Y-69850000D01*
X186529827Y-69765199D01*
X186626500Y-69531810D01*
X186626500Y-69279191D01*
X186626500Y-68644191D01*
X186529827Y-68410802D01*
X186381525Y-68262499D01*
X186529827Y-68114199D01*
X186626500Y-67880810D01*
X186626500Y-67628191D01*
X186626500Y-66993191D01*
X186529827Y-66759802D01*
X186445025Y-66675000D01*
X186529827Y-66590199D01*
X186626500Y-66356810D01*
X186626500Y-66104191D01*
X186626500Y-65469191D01*
X186529827Y-65235802D01*
X186351199Y-65057173D01*
X186117810Y-64960500D01*
X185865191Y-64960500D01*
X184722191Y-64960500D01*
X184488802Y-65057173D01*
X184467500Y-65078474D01*
X184446199Y-65057173D01*
X184212810Y-64960500D01*
X183960191Y-64960500D01*
X182817191Y-64960500D01*
X182583802Y-65057173D01*
X182405173Y-65235801D01*
X182308500Y-65469190D01*
X182308500Y-65721809D01*
X182308500Y-66356809D01*
X182405173Y-66590198D01*
X182489974Y-66674999D01*
X182405173Y-66759801D01*
X182308500Y-66993190D01*
X182308500Y-67245809D01*
X182308500Y-67353816D01*
X182047722Y-67245532D01*
X181496735Y-67245051D01*
X180987505Y-67455460D01*
X180922605Y-67520246D01*
X179251859Y-65849500D01*
X179767809Y-65849500D01*
X180001198Y-65752827D01*
X180022499Y-65731525D01*
X180043801Y-65752827D01*
X180277190Y-65849500D01*
X180529809Y-65849500D01*
X181672809Y-65849500D01*
X181906198Y-65752827D01*
X182084827Y-65574199D01*
X182181500Y-65340810D01*
X182181500Y-65088191D01*
X182181500Y-65022130D01*
X182974316Y-64229314D01*
X183139497Y-63982104D01*
X183151699Y-63920756D01*
X183490689Y-63780689D01*
X183794622Y-63477286D01*
X183959313Y-63080668D01*
X183959687Y-62651216D01*
X183795689Y-62254311D01*
X183492286Y-61950378D01*
X183095668Y-61785687D01*
X182666216Y-61785313D01*
X182269311Y-61949311D01*
X182181500Y-62036968D01*
X182181500Y-61913191D01*
X182181500Y-61278191D01*
X182084827Y-61044802D01*
X182000025Y-60960000D01*
X182084827Y-60875199D01*
X182181500Y-60641810D01*
X182181500Y-60389191D01*
X182181500Y-59754191D01*
X182084827Y-59520802D01*
X181910000Y-59345974D01*
X181910000Y-55632290D01*
X182271145Y-55271145D01*
X185345290Y-52197000D01*
X187198000Y-52197000D01*
X187198000Y-73159033D01*
X199517000Y-73151927D01*
X199517000Y-39952395D01*
X195707000Y-36142395D01*
X195707000Y-29972000D01*
X215773000Y-29972000D01*
X215773000Y-34390760D01*
X215264803Y-33882563D01*
X215265440Y-33151979D01*
X214879563Y-32218085D01*
X214165673Y-31502948D01*
X213232454Y-31115441D01*
X212221979Y-31114560D01*
X211288085Y-31500437D01*
X210572948Y-32214327D01*
X210185441Y-33147546D01*
X210185437Y-33151972D01*
X209799563Y-32218085D01*
X209085673Y-31502948D01*
X208152454Y-31115441D01*
X207141979Y-31114560D01*
X206208085Y-31500437D01*
X205492948Y-32214327D01*
X205105441Y-33147546D01*
X205105437Y-33151972D01*
X204719563Y-32218085D01*
X204005673Y-31502948D01*
X203072454Y-31115441D01*
X202061979Y-31114560D01*
X201128085Y-31500437D01*
X200412948Y-32214327D01*
X200025441Y-33147546D01*
X200024560Y-34158021D01*
X200410437Y-35091915D01*
X201124327Y-35807052D01*
X202057546Y-36194559D01*
X203068021Y-36195440D01*
X204001915Y-35809563D01*
X204717052Y-35095673D01*
X205104559Y-34162454D01*
X205104562Y-34158027D01*
X205490437Y-35091915D01*
X206204327Y-35807052D01*
X207137546Y-36194559D01*
X208148021Y-36195440D01*
X209081915Y-35809563D01*
X209797052Y-35095673D01*
X210184559Y-34162454D01*
X210184562Y-34158027D01*
X210570437Y-35091915D01*
X211284327Y-35807052D01*
X212217546Y-36194559D01*
X212952960Y-36195200D01*
X212995000Y-36237239D01*
X212995000Y-40313795D01*
X212332707Y-39650345D01*
X211352827Y-39243464D01*
X210291828Y-39242538D01*
X209311239Y-39647709D01*
X208560345Y-40397293D01*
X208153464Y-41377173D01*
X208152538Y-42438172D01*
X208557709Y-43418761D01*
X209307293Y-44169655D01*
X210287173Y-44576536D01*
X211348172Y-44577462D01*
X212328761Y-44172291D01*
X212995000Y-43507214D01*
X212995000Y-45085000D01*
X208915000Y-45085000D01*
X208915000Y-51435000D01*
X212995000Y-51435000D01*
X212995000Y-54283795D01*
X212332707Y-53620345D01*
X211352827Y-53213464D01*
X210291828Y-53212538D01*
X209311239Y-53617709D01*
X208560345Y-54367293D01*
X208153464Y-55347173D01*
X208152538Y-56408172D01*
X208557709Y-57388761D01*
X209307293Y-58139655D01*
X210287173Y-58546536D01*
X211348172Y-58547462D01*
X212328761Y-58142291D01*
X212995000Y-57477214D01*
X212995000Y-59055000D01*
X208915000Y-59055000D01*
X208915000Y-65405000D01*
X212995000Y-65405000D01*
X212995000Y-68253795D01*
X212332707Y-67590345D01*
X211352827Y-67183464D01*
X210291828Y-67182538D01*
X209311239Y-67587709D01*
X208560345Y-68337293D01*
X208153464Y-69317173D01*
X208152538Y-70378172D01*
X208557709Y-71358761D01*
X209307293Y-72109655D01*
X210287173Y-72516536D01*
X211348172Y-72517462D01*
X212328761Y-72112291D01*
X213046307Y-71395995D01*
X213119457Y-71763741D01*
X213473880Y-72294174D01*
X214004313Y-72648597D01*
X214630000Y-72773054D01*
X215255687Y-72648597D01*
X215773000Y-72302940D01*
X215773000Y-80518000D01*
G36*
X198628000Y-72263000D02*
X198138715Y-72263000D01*
X198234759Y-72031702D01*
X198235240Y-71480715D01*
X198024831Y-70971485D01*
X197635564Y-70581539D01*
X197126702Y-70370241D01*
X196787234Y-70369944D01*
X196761146Y-70343856D01*
X195880000Y-69462710D01*
X195880000Y-59960500D01*
X195900142Y-59956494D01*
X196203478Y-59753812D01*
X196761146Y-59196144D01*
X196787344Y-59169945D01*
X197124285Y-59170240D01*
X197633515Y-58959831D01*
X198023461Y-58570564D01*
X198234759Y-58061702D01*
X198235240Y-57510715D01*
X198024831Y-57001485D01*
X197635564Y-56611539D01*
X197126702Y-56400241D01*
X196575715Y-56399760D01*
X196066485Y-56610169D01*
X195880000Y-56796329D01*
X195880000Y-46107290D01*
X196126146Y-45861144D01*
X196787344Y-45199945D01*
X197124285Y-45200240D01*
X197633515Y-44989831D01*
X198023461Y-44600564D01*
X198234759Y-44091702D01*
X198235240Y-43540715D01*
X198024831Y-43031485D01*
X197785000Y-42791235D01*
X197785000Y-42754340D01*
X197713827Y-42396531D01*
X197511145Y-42093195D01*
X189681805Y-34263855D01*
X189378469Y-34061173D01*
X189020660Y-33990000D01*
X187862330Y-33990000D01*
X187779029Y-33865330D01*
X187292848Y-33540474D01*
X186719359Y-33426400D01*
X186660641Y-33426400D01*
X186087152Y-33540474D01*
X185600971Y-33865330D01*
X185420000Y-34136172D01*
X185239029Y-33865330D01*
X184924248Y-33655000D01*
X185239029Y-33444670D01*
X185563885Y-32958489D01*
X185677959Y-32385000D01*
X185563885Y-31811511D01*
X185239029Y-31325330D01*
X184752848Y-31000474D01*
X184179359Y-30886400D01*
X184120641Y-30886400D01*
X183794003Y-30951372D01*
X183444214Y-30601584D01*
X183197004Y-30436403D01*
X182905399Y-30378399D01*
X181012591Y-30378399D01*
X180720986Y-30436403D01*
X180621967Y-30502564D01*
X180546996Y-30552659D01*
X180546995Y-30552659D01*
X180546994Y-30552660D01*
X180540434Y-30553965D01*
X180293224Y-30719146D01*
X179876092Y-31136277D01*
X179672848Y-31000474D01*
X179099359Y-30886400D01*
X179040641Y-30886400D01*
X178467152Y-31000474D01*
X177980971Y-31325330D01*
X177800000Y-31596172D01*
X177619029Y-31325330D01*
X177132848Y-31000474D01*
X176559359Y-30886400D01*
X176500641Y-30886400D01*
X175927152Y-31000474D01*
X175440971Y-31325330D01*
X175116115Y-31811511D01*
X175002041Y-32385000D01*
X175116115Y-32958489D01*
X175440971Y-33444670D01*
X175755751Y-33655000D01*
X175440971Y-33865330D01*
X175116115Y-34351511D01*
X175002041Y-34925000D01*
X175116115Y-35498489D01*
X175440971Y-35984670D01*
X175927152Y-36309526D01*
X176500641Y-36423600D01*
X176559359Y-36423600D01*
X177132848Y-36309526D01*
X177373852Y-36148492D01*
X188309675Y-47084316D01*
X188309676Y-47084316D01*
X188556886Y-47249497D01*
X188848491Y-47307501D01*
X188912499Y-47307501D01*
X188912499Y-53149499D01*
X188970503Y-53441104D01*
X189103000Y-53639399D01*
X189103000Y-65405000D01*
X189161004Y-65696605D01*
X189326185Y-65943815D01*
X190166290Y-66783920D01*
X190166103Y-66999574D01*
X190330101Y-67396479D01*
X190633504Y-67700412D01*
X191030122Y-67865103D01*
X191459574Y-67865477D01*
X191856479Y-67701479D01*
X192160412Y-67398076D01*
X192325103Y-67001458D01*
X192325477Y-66572006D01*
X192161479Y-66175101D01*
X191858076Y-65871168D01*
X191461458Y-65706477D01*
X191243917Y-65706287D01*
X190627000Y-65089370D01*
X190627000Y-53784611D01*
X190713784Y-53784687D01*
X191110689Y-53620689D01*
X191414622Y-53317286D01*
X191579313Y-52920668D01*
X191579687Y-52491216D01*
X191415689Y-52094311D01*
X191262000Y-51940353D01*
X191262000Y-46355000D01*
X191203996Y-46063395D01*
X191038815Y-45816185D01*
X191038815Y-45816184D01*
X181645090Y-36422460D01*
X182212848Y-36309526D01*
X182453852Y-36148492D01*
X185579175Y-39273815D01*
X185826385Y-39438996D01*
X185826386Y-39438996D01*
X186117990Y-39497000D01*
X189735358Y-39497000D01*
X189887714Y-39649622D01*
X190284332Y-39814313D01*
X190713784Y-39814687D01*
X191110689Y-39650689D01*
X191414622Y-39347286D01*
X191579313Y-38950668D01*
X191579438Y-38806068D01*
X195739727Y-42966357D01*
X195676539Y-43029436D01*
X195465241Y-43538298D01*
X195464944Y-43877765D01*
X194803856Y-44538854D01*
X194283855Y-45058855D01*
X194081173Y-45362191D01*
X194010000Y-45720000D01*
X194010000Y-59092667D01*
X194010000Y-69850000D01*
X194081173Y-70207809D01*
X194283855Y-70511145D01*
X195438856Y-71666146D01*
X195465054Y-71692344D01*
X195464760Y-72029285D01*
X195561328Y-72263000D01*
X188087000Y-72263000D01*
X188087000Y-51308000D01*
X186234290Y-51308000D01*
X187351145Y-50191145D01*
X187416449Y-50093410D01*
X187473515Y-50069831D01*
X187863461Y-49680564D01*
X188074759Y-49171702D01*
X188075240Y-48620715D01*
X187864831Y-48111485D01*
X187475564Y-47721539D01*
X186966702Y-47510241D01*
X186415715Y-47509760D01*
X185906485Y-47720169D01*
X185516539Y-48109436D01*
X185305241Y-48618298D01*
X185304760Y-49169285D01*
X185428631Y-49469078D01*
X183589710Y-51308000D01*
X171577000Y-51308000D01*
X171577000Y-29972000D01*
X194818000Y-29972000D01*
X194818000Y-36247605D01*
X198628000Y-40057605D01*
X198628000Y-44850509D01*
X198600756Y-44839197D01*
X198149225Y-44838803D01*
X197731914Y-45011233D01*
X197412355Y-45330235D01*
X197239197Y-45747244D01*
X197238803Y-46198775D01*
X197411233Y-46616086D01*
X197730235Y-46935645D01*
X198147244Y-47108803D01*
X198598775Y-47109197D01*
X198628000Y-47097121D01*
X198628000Y-72263000D01*
X198628000Y-72263000D01*
G37*
X198628000Y-72263000D02*
X198138715Y-72263000D01*
X198234759Y-72031702D01*
X198235240Y-71480715D01*
X198024831Y-70971485D01*
X197635564Y-70581539D01*
X197126702Y-70370241D01*
X196787234Y-70369944D01*
X196761146Y-70343856D01*
X195880000Y-69462710D01*
X195880000Y-59960500D01*
X195900142Y-59956494D01*
X196203478Y-59753812D01*
X196761146Y-59196144D01*
X196787344Y-59169945D01*
X197124285Y-59170240D01*
X197633515Y-58959831D01*
X198023461Y-58570564D01*
X198234759Y-58061702D01*
X198235240Y-57510715D01*
X198024831Y-57001485D01*
X197635564Y-56611539D01*
X197126702Y-56400241D01*
X196575715Y-56399760D01*
X196066485Y-56610169D01*
X195880000Y-56796329D01*
X195880000Y-46107290D01*
X196126146Y-45861144D01*
X196787344Y-45199945D01*
X197124285Y-45200240D01*
X197633515Y-44989831D01*
X198023461Y-44600564D01*
X198234759Y-44091702D01*
X198235240Y-43540715D01*
X198024831Y-43031485D01*
X197785000Y-42791235D01*
X197785000Y-42754340D01*
X197713827Y-42396531D01*
X197511145Y-42093195D01*
X189681805Y-34263855D01*
X189378469Y-34061173D01*
X189020660Y-33990000D01*
X187862330Y-33990000D01*
X187779029Y-33865330D01*
X187292848Y-33540474D01*
X186719359Y-33426400D01*
X186660641Y-33426400D01*
X186087152Y-33540474D01*
X185600971Y-33865330D01*
X185420000Y-34136172D01*
X185239029Y-33865330D01*
X184924248Y-33655000D01*
X185239029Y-33444670D01*
X185563885Y-32958489D01*
X185677959Y-32385000D01*
X185563885Y-31811511D01*
X185239029Y-31325330D01*
X184752848Y-31000474D01*
X184179359Y-30886400D01*
X184120641Y-30886400D01*
X183794003Y-30951372D01*
X183444214Y-30601584D01*
X183197004Y-30436403D01*
X182905399Y-30378399D01*
X181012591Y-30378399D01*
X180720986Y-30436403D01*
X180621967Y-30502564D01*
X180546996Y-30552659D01*
X180546995Y-30552659D01*
X180546994Y-30552660D01*
X180540434Y-30553965D01*
X180293224Y-30719146D01*
X179876092Y-31136277D01*
X179672848Y-31000474D01*
X179099359Y-30886400D01*
X179040641Y-30886400D01*
X178467152Y-31000474D01*
X177980971Y-31325330D01*
X177800000Y-31596172D01*
X177619029Y-31325330D01*
X177132848Y-31000474D01*
X176559359Y-30886400D01*
X176500641Y-30886400D01*
X175927152Y-31000474D01*
X175440971Y-31325330D01*
X175116115Y-31811511D01*
X175002041Y-32385000D01*
X175116115Y-32958489D01*
X175440971Y-33444670D01*
X175755751Y-33655000D01*
X175440971Y-33865330D01*
X175116115Y-34351511D01*
X175002041Y-34925000D01*
X175116115Y-35498489D01*
X175440971Y-35984670D01*
X175927152Y-36309526D01*
X176500641Y-36423600D01*
X176559359Y-36423600D01*
X177132848Y-36309526D01*
X177373852Y-36148492D01*
X188309675Y-47084316D01*
X188309676Y-47084316D01*
X188556886Y-47249497D01*
X188848491Y-47307501D01*
X188912499Y-47307501D01*
X188912499Y-53149499D01*
X188970503Y-53441104D01*
X189103000Y-53639399D01*
X189103000Y-65405000D01*
X189161004Y-65696605D01*
X189326185Y-65943815D01*
X190166290Y-66783920D01*
X190166103Y-66999574D01*
X190330101Y-67396479D01*
X190633504Y-67700412D01*
X191030122Y-67865103D01*
X191459574Y-67865477D01*
X191856479Y-67701479D01*
X192160412Y-67398076D01*
X192325103Y-67001458D01*
X192325477Y-66572006D01*
X192161479Y-66175101D01*
X191858076Y-65871168D01*
X191461458Y-65706477D01*
X191243917Y-65706287D01*
X190627000Y-65089370D01*
X190627000Y-53784611D01*
X190713784Y-53784687D01*
X191110689Y-53620689D01*
X191414622Y-53317286D01*
X191579313Y-52920668D01*
X191579687Y-52491216D01*
X191415689Y-52094311D01*
X191262000Y-51940353D01*
X191262000Y-46355000D01*
X191203996Y-46063395D01*
X191038815Y-45816185D01*
X191038815Y-45816184D01*
X181645090Y-36422460D01*
X182212848Y-36309526D01*
X182453852Y-36148492D01*
X185579175Y-39273815D01*
X185826385Y-39438996D01*
X185826386Y-39438996D01*
X186117990Y-39497000D01*
X189735358Y-39497000D01*
X189887714Y-39649622D01*
X190284332Y-39814313D01*
X190713784Y-39814687D01*
X191110689Y-39650689D01*
X191414622Y-39347286D01*
X191579313Y-38950668D01*
X191579438Y-38806068D01*
X195739727Y-42966357D01*
X195676539Y-43029436D01*
X195465241Y-43538298D01*
X195464944Y-43877765D01*
X194803856Y-44538854D01*
X194283855Y-45058855D01*
X194081173Y-45362191D01*
X194010000Y-45720000D01*
X194010000Y-59092667D01*
X194010000Y-69850000D01*
X194081173Y-70207809D01*
X194283855Y-70511145D01*
X195438856Y-71666146D01*
X195465054Y-71692344D01*
X195464760Y-72029285D01*
X195561328Y-72263000D01*
X188087000Y-72263000D01*
X188087000Y-51308000D01*
X186234290Y-51308000D01*
X187351145Y-50191145D01*
X187416449Y-50093410D01*
X187473515Y-50069831D01*
X187863461Y-49680564D01*
X188074759Y-49171702D01*
X188075240Y-48620715D01*
X187864831Y-48111485D01*
X187475564Y-47721539D01*
X186966702Y-47510241D01*
X186415715Y-47509760D01*
X185906485Y-47720169D01*
X185516539Y-48109436D01*
X185305241Y-48618298D01*
X185304760Y-49169285D01*
X185428631Y-49469078D01*
X183589710Y-51308000D01*
X171577000Y-51308000D01*
X171577000Y-29972000D01*
X194818000Y-29972000D01*
X194818000Y-36247605D01*
X198628000Y-40057605D01*
X198628000Y-44850509D01*
X198600756Y-44839197D01*
X198149225Y-44838803D01*
X197731914Y-45011233D01*
X197412355Y-45330235D01*
X197239197Y-45747244D01*
X197238803Y-46198775D01*
X197411233Y-46616086D01*
X197730235Y-46935645D01*
X198147244Y-47108803D01*
X198598775Y-47109197D01*
X198628000Y-47097121D01*
X198628000Y-72263000D01*
M02*
