M48
;DRILL file {pcbnew (2014-10-27 BZR 5228)-product} date 06.12.2014 02:52:01
;FORMAT={-:-/ absolute / inch / decimal}
FMAT,2
INCH,TZ
T1C0.012
T2C0.020
T3C0.025
T4C0.040
T5C0.059
T6C0.060
T7C0.120
%
G90
G05
M72
T1
X6.9854Y-2.808
X6.9934Y-2.6583
X7.81Y-1.81
T2
X7.1563Y-2.702
X7.35Y-1.925
X7.75Y-1.575
X7.75Y-1.725
X7.75Y-2.275
X7.75Y-2.825
T3
X6.875Y-2.125
X7.2Y-2.475
X7.5Y-1.525
X7.5Y-2.075
X7.5294Y-2.6294
X7.725Y-2.125
X7.725Y-2.675
X7.8254Y-2.9704
T4
X6.95Y-1.275
X6.95Y-1.375
X7.05Y-1.275
X7.05Y-1.375
X7.15Y-1.275
X7.15Y-1.375
X7.25Y-1.275
X7.25Y-1.375
X7.35Y-1.275
X7.35Y-1.375
T5
X7.25Y-2.225
X8.1Y-1.575
X8.1Y-2.125
X8.1Y-2.675
X8.45Y-1.7
X8.45Y-2.2541
X8.45Y-2.8007
T6
X7.775Y-1.325
X7.975Y-1.325
X8.175Y-1.325
X8.375Y-1.325
T7
X8.3Y-1.65
X8.3Y-2.2
X8.3Y-2.75
T0
M30
