%FSLAX46Y46*%
G04 Gerber Fmt 4.6, Leading zero omitted, Abs format (unit mm)*
G04 Created by KiCad (PCBNEW (2014-10-27 BZR 5228)-product) date 06.12.2014 02:57:52*
%MOMM*%
G01*
G04 APERTURE LIST*
%ADD10C,0.100000*%
%ADD11C,0.200000*%
%ADD12C,0.150000*%
%ADD13C,0.203200*%
%ADD14C,0.304800*%
%ADD15C,0.114300*%
%ADD16C,0.127000*%
%ADD17C,0.254000*%
G04 APERTURE END LIST*
D10*
D11*
X215900000Y-80645000D02*
X215900000Y-29845000D01*
X171450000Y-80645000D02*
X215900000Y-80645000D01*
X171450000Y-29845000D02*
X171450000Y-80645000D01*
X215900000Y-29845000D02*
X171450000Y-29845000D01*
D10*
X214520000Y-59530000D02*
X214520000Y-64930000D01*
X214520000Y-64930000D02*
X207120000Y-64930000D01*
X207120000Y-59530000D02*
X207120000Y-64930000D01*
X214520000Y-59530000D02*
X207120000Y-59530000D01*
X214520000Y-73500000D02*
X214520000Y-78900000D01*
X214520000Y-78900000D02*
X207120000Y-78900000D01*
X207120000Y-73500000D02*
X207120000Y-78900000D01*
X214520000Y-73500000D02*
X207120000Y-73500000D01*
X206900000Y-73500000D02*
X206900000Y-78900000D01*
X206900000Y-78900000D02*
X199500000Y-78900000D01*
X199500000Y-73500000D02*
X199500000Y-78900000D01*
X206900000Y-73500000D02*
X199500000Y-73500000D01*
D12*
X187960000Y-36195000D02*
X175260000Y-36195000D01*
X175260000Y-36195000D02*
X175260000Y-31115000D01*
X175260000Y-31115000D02*
X185420000Y-31115000D01*
X187960000Y-36195000D02*
X187960000Y-33655000D01*
X187960000Y-31115000D02*
X185420000Y-31115000D01*
X187960000Y-33655000D02*
X185420000Y-33655000D01*
X185420000Y-33655000D02*
X185420000Y-31115000D01*
X187960000Y-31115000D02*
X187960000Y-33655000D01*
X194945000Y-29845000D02*
X194945000Y-37465000D01*
X215265000Y-37465000D02*
X215265000Y-29845000D01*
X215265000Y-36195000D02*
X194945000Y-36195000D01*
X194945000Y-29845000D02*
X215265000Y-29845000D01*
X194945000Y-37465000D02*
X215265000Y-37465000D01*
X175260000Y-44704000D02*
X185420000Y-44704000D01*
X185420000Y-44704000D02*
X185420000Y-53086000D01*
X185420000Y-53086000D02*
X175260000Y-53086000D01*
X175260000Y-53086000D02*
X175260000Y-44704000D01*
X185420000Y-49530000D02*
X184658000Y-49530000D01*
X184658000Y-49530000D02*
X184658000Y-48260000D01*
X184658000Y-48260000D02*
X185420000Y-48260000D01*
X197421500Y-64000380D02*
X197421500Y-64706500D01*
X197421500Y-64706500D02*
X198818500Y-64706500D01*
X198818500Y-64706500D02*
X198818500Y-64000380D01*
X197421500Y-62293500D02*
X197421500Y-62999620D01*
X197421500Y-62293500D02*
X198818500Y-62293500D01*
X198818500Y-62293500D02*
X198818500Y-62999620D01*
X190754000Y-48387000D02*
X190754000Y-50673000D01*
X190754000Y-50673000D02*
X192405000Y-50673000D01*
X194183000Y-48387000D02*
X195834000Y-48387000D01*
X195834000Y-48387000D02*
X195834000Y-50673000D01*
X195834000Y-50673000D02*
X194183000Y-50673000D01*
X192405000Y-48387000D02*
X190754000Y-48387000D01*
X195834000Y-44450000D02*
X195834000Y-39370000D01*
X195834000Y-39370000D02*
X200406000Y-39370000D01*
X200406000Y-39370000D02*
X200406000Y-44450000D01*
X200406000Y-44450000D02*
X195834000Y-44450000D01*
X197358000Y-44450000D02*
X197358000Y-43942000D01*
X197358000Y-43942000D02*
X198628000Y-43942000D01*
X198628000Y-43942000D02*
X198628000Y-44450000D01*
D10*
X206900000Y-45560000D02*
X206900000Y-50960000D01*
X206900000Y-50960000D02*
X199500000Y-50960000D01*
X199500000Y-45560000D02*
X199500000Y-50960000D01*
X206900000Y-45560000D02*
X199500000Y-45560000D01*
D12*
X213106000Y-41910000D02*
G75*
G03X213106000Y-41910000I-2286000J0D01*
G01*
D10*
X214520000Y-45560000D02*
X214520000Y-50960000D01*
X214520000Y-50960000D02*
X207120000Y-50960000D01*
X207120000Y-45560000D02*
X207120000Y-50960000D01*
X214520000Y-45560000D02*
X207120000Y-45560000D01*
X206900000Y-59530000D02*
X206900000Y-64930000D01*
X206900000Y-64930000D02*
X199500000Y-64930000D01*
X199500000Y-59530000D02*
X199500000Y-64930000D01*
X206900000Y-59530000D02*
X199500000Y-59530000D01*
D12*
X176465000Y-60705000D02*
X176465000Y-61070000D01*
X184215000Y-60705000D02*
X184215000Y-61070000D01*
X184215000Y-76455000D02*
X184215000Y-76090000D01*
X176465000Y-76455000D02*
X176465000Y-76090000D01*
X176465000Y-60705000D02*
X184215000Y-60705000D01*
X176465000Y-76455000D02*
X184215000Y-76455000D01*
X176465000Y-61070000D02*
X174640000Y-61070000D01*
X190500000Y-61087000D02*
X190500000Y-63373000D01*
X190500000Y-63373000D02*
X192151000Y-63373000D01*
X193929000Y-61087000D02*
X195580000Y-61087000D01*
X195580000Y-61087000D02*
X195580000Y-63373000D01*
X195580000Y-63373000D02*
X193929000Y-63373000D01*
X192151000Y-61087000D02*
X190500000Y-61087000D01*
X213106000Y-69850000D02*
G75*
G03X213106000Y-69850000I-2286000J0D01*
G01*
X192341500Y-41140380D02*
X192341500Y-41846500D01*
X192341500Y-41846500D02*
X193738500Y-41846500D01*
X193738500Y-41846500D02*
X193738500Y-41140380D01*
X192341500Y-39433500D02*
X192341500Y-40139620D01*
X192341500Y-39433500D02*
X193738500Y-39433500D01*
X193738500Y-39433500D02*
X193738500Y-40139620D01*
X192341500Y-69080380D02*
X192341500Y-69786500D01*
X192341500Y-69786500D02*
X193738500Y-69786500D01*
X193738500Y-69786500D02*
X193738500Y-69080380D01*
X192341500Y-67373500D02*
X192341500Y-68079620D01*
X192341500Y-67373500D02*
X193738500Y-67373500D01*
X193738500Y-67373500D02*
X193738500Y-68079620D01*
X189801500Y-55110380D02*
X189801500Y-55816500D01*
X189801500Y-55816500D02*
X191198500Y-55816500D01*
X191198500Y-55816500D02*
X191198500Y-55110380D01*
X189801500Y-53403500D02*
X189801500Y-54109620D01*
X189801500Y-53403500D02*
X191198500Y-53403500D01*
X191198500Y-53403500D02*
X191198500Y-54109620D01*
X189801500Y-41140380D02*
X189801500Y-41846500D01*
X189801500Y-41846500D02*
X191198500Y-41846500D01*
X191198500Y-41846500D02*
X191198500Y-41140380D01*
X189801500Y-39433500D02*
X189801500Y-40139620D01*
X189801500Y-39433500D02*
X191198500Y-39433500D01*
X191198500Y-39433500D02*
X191198500Y-40139620D01*
X190436500Y-69080380D02*
X190436500Y-69786500D01*
X190436500Y-69786500D02*
X191833500Y-69786500D01*
X191833500Y-69786500D02*
X191833500Y-69080380D01*
X190436500Y-67373500D02*
X190436500Y-68079620D01*
X190436500Y-67373500D02*
X191833500Y-67373500D01*
X191833500Y-67373500D02*
X191833500Y-68079620D01*
X202501500Y-42410380D02*
X202501500Y-43116500D01*
X202501500Y-43116500D02*
X203898500Y-43116500D01*
X203898500Y-43116500D02*
X203898500Y-42410380D01*
X202501500Y-40703500D02*
X202501500Y-41409620D01*
X202501500Y-40703500D02*
X203898500Y-40703500D01*
X203898500Y-40703500D02*
X203898500Y-41409620D01*
X202501500Y-70350380D02*
X202501500Y-71056500D01*
X202501500Y-71056500D02*
X203898500Y-71056500D01*
X203898500Y-71056500D02*
X203898500Y-70350380D01*
X202501500Y-68643500D02*
X202501500Y-69349620D01*
X202501500Y-68643500D02*
X203898500Y-68643500D01*
X203898500Y-68643500D02*
X203898500Y-69349620D01*
X197421500Y-50030380D02*
X197421500Y-50736500D01*
X197421500Y-50736500D02*
X198818500Y-50736500D01*
X198818500Y-50736500D02*
X198818500Y-50030380D01*
X197421500Y-48323500D02*
X197421500Y-49029620D01*
X197421500Y-48323500D02*
X198818500Y-48323500D01*
X198818500Y-48323500D02*
X198818500Y-49029620D01*
X192270380Y-57848500D02*
X192976500Y-57848500D01*
X192976500Y-57848500D02*
X192976500Y-56451500D01*
X192976500Y-56451500D02*
X192270380Y-56451500D01*
X190563500Y-57848500D02*
X191269620Y-57848500D01*
X190563500Y-57848500D02*
X190563500Y-56451500D01*
X190563500Y-56451500D02*
X191269620Y-56451500D01*
X192270380Y-43878500D02*
X192976500Y-43878500D01*
X192976500Y-43878500D02*
X192976500Y-42481500D01*
X192976500Y-42481500D02*
X192270380Y-42481500D01*
X190563500Y-43878500D02*
X191269620Y-43878500D01*
X190563500Y-43878500D02*
X190563500Y-42481500D01*
X190563500Y-42481500D02*
X191269620Y-42481500D01*
X192270380Y-71818500D02*
X192976500Y-71818500D01*
X192976500Y-71818500D02*
X192976500Y-70421500D01*
X192976500Y-70421500D02*
X192270380Y-70421500D01*
X190563500Y-71818500D02*
X191269620Y-71818500D01*
X190563500Y-71818500D02*
X190563500Y-70421500D01*
X190563500Y-70421500D02*
X191269620Y-70421500D01*
X197421500Y-77970380D02*
X197421500Y-78676500D01*
X197421500Y-78676500D02*
X198818500Y-78676500D01*
X198818500Y-78676500D02*
X198818500Y-77970380D01*
X197421500Y-76263500D02*
X197421500Y-76969620D01*
X197421500Y-76263500D02*
X198818500Y-76263500D01*
X198818500Y-76263500D02*
X198818500Y-76969620D01*
X195834000Y-72390000D02*
X195834000Y-67310000D01*
X195834000Y-67310000D02*
X200406000Y-67310000D01*
X200406000Y-67310000D02*
X200406000Y-72390000D01*
X200406000Y-72390000D02*
X195834000Y-72390000D01*
X197358000Y-72390000D02*
X197358000Y-71882000D01*
X197358000Y-71882000D02*
X198628000Y-71882000D01*
X198628000Y-71882000D02*
X198628000Y-72390000D01*
X192341500Y-55110380D02*
X192341500Y-55816500D01*
X192341500Y-55816500D02*
X193738500Y-55816500D01*
X193738500Y-55816500D02*
X193738500Y-55110380D01*
X192341500Y-53403500D02*
X192341500Y-54109620D01*
X192341500Y-53403500D02*
X193738500Y-53403500D01*
X193738500Y-53403500D02*
X193738500Y-54109620D01*
X202501500Y-56380380D02*
X202501500Y-57086500D01*
X202501500Y-57086500D02*
X203898500Y-57086500D01*
X203898500Y-57086500D02*
X203898500Y-56380380D01*
X202501500Y-54673500D02*
X202501500Y-55379620D01*
X202501500Y-54673500D02*
X203898500Y-54673500D01*
X203898500Y-54673500D02*
X203898500Y-55379620D01*
X195834000Y-58420000D02*
X195834000Y-53340000D01*
X195834000Y-53340000D02*
X200406000Y-53340000D01*
X200406000Y-53340000D02*
X200406000Y-58420000D01*
X200406000Y-58420000D02*
X195834000Y-58420000D01*
X197358000Y-58420000D02*
X197358000Y-57912000D01*
X197358000Y-57912000D02*
X198628000Y-57912000D01*
X198628000Y-57912000D02*
X198628000Y-58420000D01*
X213106000Y-55880000D02*
G75*
G03X213106000Y-55880000I-2286000J0D01*
G01*
X190500000Y-63627000D02*
X190500000Y-65913000D01*
X190500000Y-65913000D02*
X192151000Y-65913000D01*
X193929000Y-63627000D02*
X195580000Y-63627000D01*
X195580000Y-63627000D02*
X195580000Y-65913000D01*
X195580000Y-65913000D02*
X193929000Y-65913000D01*
X192151000Y-63627000D02*
X190500000Y-63627000D01*
X187960000Y-45847000D02*
X187960000Y-48133000D01*
X187960000Y-48133000D02*
X189611000Y-48133000D01*
X191389000Y-45847000D02*
X193040000Y-45847000D01*
X193040000Y-45847000D02*
X193040000Y-48133000D01*
X193040000Y-48133000D02*
X191389000Y-48133000D01*
X189611000Y-45847000D02*
X187960000Y-45847000D01*
X190500000Y-76327000D02*
X190500000Y-78613000D01*
X190500000Y-78613000D02*
X192151000Y-78613000D01*
X193929000Y-76327000D02*
X195580000Y-76327000D01*
X195580000Y-76327000D02*
X195580000Y-78613000D01*
X195580000Y-78613000D02*
X193929000Y-78613000D01*
X192151000Y-76327000D02*
X190500000Y-76327000D01*
X187960000Y-73787000D02*
X187960000Y-76073000D01*
X187960000Y-76073000D02*
X189611000Y-76073000D01*
X191389000Y-73787000D02*
X193040000Y-73787000D01*
X193040000Y-73787000D02*
X193040000Y-76073000D01*
X193040000Y-76073000D02*
X191389000Y-76073000D01*
X189611000Y-73787000D02*
X187960000Y-73787000D01*
D10*
X215462262Y-62289524D02*
X215432500Y-62349048D01*
X215372976Y-62408571D01*
X215283690Y-62497857D01*
X215253929Y-62557381D01*
X215253929Y-62616905D01*
X215402738Y-62587143D02*
X215372976Y-62646667D01*
X215313452Y-62706190D01*
X215194405Y-62735952D01*
X214986071Y-62735952D01*
X214867024Y-62706190D01*
X214807500Y-62646667D01*
X214777738Y-62587143D01*
X214777738Y-62468095D01*
X214807500Y-62408571D01*
X214867024Y-62349048D01*
X214986071Y-62319286D01*
X215194405Y-62319286D01*
X215313452Y-62349048D01*
X215372976Y-62408571D01*
X215402738Y-62468095D01*
X215402738Y-62587143D01*
X215402738Y-61724048D02*
X215402738Y-62081190D01*
X215402738Y-61902619D02*
X214777738Y-61902619D01*
X214867024Y-61962143D01*
X214926548Y-62021667D01*
X214956310Y-62081190D01*
X215462262Y-76259524D02*
X215432500Y-76319048D01*
X215372976Y-76378571D01*
X215283690Y-76467857D01*
X215253929Y-76527381D01*
X215253929Y-76586905D01*
X215402738Y-76557143D02*
X215372976Y-76616667D01*
X215313452Y-76676190D01*
X215194405Y-76705952D01*
X214986071Y-76705952D01*
X214867024Y-76676190D01*
X214807500Y-76616667D01*
X214777738Y-76557143D01*
X214777738Y-76438095D01*
X214807500Y-76378571D01*
X214867024Y-76319048D01*
X214986071Y-76289286D01*
X215194405Y-76289286D01*
X215313452Y-76319048D01*
X215372976Y-76378571D01*
X215402738Y-76438095D01*
X215402738Y-76557143D01*
X214777738Y-75723809D02*
X214777738Y-76021428D01*
X215075357Y-76051190D01*
X215045595Y-76021428D01*
X215015833Y-75961905D01*
X215015833Y-75813095D01*
X215045595Y-75753571D01*
X215075357Y-75723809D01*
X215134881Y-75694048D01*
X215283690Y-75694048D01*
X215343214Y-75723809D01*
X215372976Y-75753571D01*
X215402738Y-75813095D01*
X215402738Y-75961905D01*
X215372976Y-76021428D01*
X215343214Y-76051190D01*
X207842262Y-76259524D02*
X207812500Y-76319048D01*
X207752976Y-76378571D01*
X207663690Y-76467857D01*
X207633929Y-76527381D01*
X207633929Y-76586905D01*
X207782738Y-76557143D02*
X207752976Y-76616667D01*
X207693452Y-76676190D01*
X207574405Y-76705952D01*
X207366071Y-76705952D01*
X207247024Y-76676190D01*
X207187500Y-76616667D01*
X207157738Y-76557143D01*
X207157738Y-76438095D01*
X207187500Y-76378571D01*
X207247024Y-76319048D01*
X207366071Y-76289286D01*
X207574405Y-76289286D01*
X207693452Y-76319048D01*
X207752976Y-76378571D01*
X207782738Y-76438095D01*
X207782738Y-76557143D01*
X207157738Y-75753571D02*
X207157738Y-75872619D01*
X207187500Y-75932143D01*
X207217262Y-75961905D01*
X207306548Y-76021428D01*
X207425595Y-76051190D01*
X207663690Y-76051190D01*
X207723214Y-76021428D01*
X207752976Y-75991667D01*
X207782738Y-75932143D01*
X207782738Y-75813095D01*
X207752976Y-75753571D01*
X207723214Y-75723809D01*
X207663690Y-75694048D01*
X207514881Y-75694048D01*
X207455357Y-75723809D01*
X207425595Y-75753571D01*
X207395833Y-75813095D01*
X207395833Y-75932143D01*
X207425595Y-75991667D01*
X207455357Y-76021428D01*
X207514881Y-76051190D01*
D13*
X180672619Y-38039524D02*
X180672619Y-36769524D01*
X181156428Y-36769524D01*
X181277381Y-36830000D01*
X181337857Y-36890476D01*
X181398333Y-37011429D01*
X181398333Y-37192857D01*
X181337857Y-37313810D01*
X181277381Y-37374286D01*
X181156428Y-37434762D01*
X180672619Y-37434762D01*
X181882143Y-36890476D02*
X181942619Y-36830000D01*
X182063571Y-36769524D01*
X182365952Y-36769524D01*
X182486905Y-36830000D01*
X182547381Y-36890476D01*
X182607857Y-37011429D01*
X182607857Y-37132381D01*
X182547381Y-37313810D01*
X181821667Y-38039524D01*
X182607857Y-38039524D01*
D14*
X203925775Y-28488519D02*
X203925775Y-25872319D01*
X204534408Y-25872319D01*
X204686566Y-25996900D01*
X204762645Y-26121481D01*
X204838724Y-26370643D01*
X204838724Y-26744386D01*
X204762645Y-26993548D01*
X204686566Y-27118129D01*
X204534408Y-27242710D01*
X203925775Y-27242710D01*
X206360305Y-28488519D02*
X205447356Y-28488519D01*
X205903830Y-28488519D02*
X205903830Y-25872319D01*
X205751672Y-26246062D01*
X205599514Y-26495224D01*
X205447356Y-26619805D01*
X200641857Y-39279286D02*
X200569286Y-39351857D01*
X200351572Y-39424429D01*
X200206429Y-39424429D01*
X199988714Y-39351857D01*
X199843572Y-39206714D01*
X199771000Y-39061571D01*
X199698429Y-38771286D01*
X199698429Y-38553571D01*
X199771000Y-38263286D01*
X199843572Y-38118143D01*
X199988714Y-37973000D01*
X200206429Y-37900429D01*
X200351572Y-37900429D01*
X200569286Y-37973000D01*
X200641857Y-38045571D01*
X201585286Y-37900429D02*
X201875572Y-37900429D01*
X202020714Y-37973000D01*
X202165857Y-38118143D01*
X202238429Y-38408429D01*
X202238429Y-38916429D01*
X202165857Y-39206714D01*
X202020714Y-39351857D01*
X201875572Y-39424429D01*
X201585286Y-39424429D01*
X201440143Y-39351857D01*
X201295000Y-39206714D01*
X201222429Y-38916429D01*
X201222429Y-38408429D01*
X201295000Y-38118143D01*
X201440143Y-37973000D01*
X201585286Y-37900429D01*
X202891571Y-39424429D02*
X202891571Y-37900429D01*
X203762428Y-39424429D01*
X203762428Y-37900429D01*
X204488142Y-39424429D02*
X204488142Y-37900429D01*
X205358999Y-39424429D01*
X205358999Y-37900429D01*
X205721856Y-39569571D02*
X206882999Y-39569571D01*
X207898999Y-38408429D02*
X207898999Y-39424429D01*
X207536142Y-37827857D02*
X207173285Y-38916429D01*
X208116713Y-38916429D01*
X208334428Y-39569571D02*
X209495571Y-39569571D01*
X209640714Y-37900429D02*
X210148714Y-39424429D01*
X210656714Y-37900429D01*
D13*
X179469143Y-46745071D02*
X179469143Y-47670357D01*
X179523571Y-47779214D01*
X179578000Y-47833643D01*
X179686857Y-47888071D01*
X179904571Y-47888071D01*
X180013429Y-47833643D01*
X180067857Y-47779214D01*
X180122286Y-47670357D01*
X180122286Y-46745071D01*
X181265286Y-47888071D02*
X180612143Y-47888071D01*
X180938715Y-47888071D02*
X180938715Y-46745071D01*
X180829858Y-46908357D01*
X180721000Y-47017214D01*
X180612143Y-47071643D01*
D15*
X197980300Y-63662862D02*
X197827900Y-63424586D01*
X197719043Y-63662862D02*
X197719043Y-63162482D01*
X197893215Y-63162482D01*
X197936757Y-63186310D01*
X197958529Y-63210138D01*
X197980300Y-63257793D01*
X197980300Y-63329276D01*
X197958529Y-63376931D01*
X197936757Y-63400759D01*
X197893215Y-63424586D01*
X197719043Y-63424586D01*
X198372186Y-63162482D02*
X198285100Y-63162482D01*
X198241557Y-63186310D01*
X198219786Y-63210138D01*
X198176243Y-63281620D01*
X198154472Y-63376931D01*
X198154472Y-63567552D01*
X198176243Y-63615207D01*
X198198015Y-63639035D01*
X198241557Y-63662862D01*
X198328643Y-63662862D01*
X198372186Y-63639035D01*
X198393957Y-63615207D01*
X198415729Y-63567552D01*
X198415729Y-63448414D01*
X198393957Y-63400759D01*
X198372186Y-63376931D01*
X198328643Y-63353103D01*
X198241557Y-63353103D01*
X198198015Y-63376931D01*
X198176243Y-63400759D01*
X198154472Y-63448414D01*
X197630143Y-65429070D02*
X197368886Y-65429070D01*
X197499514Y-65429070D02*
X197499514Y-64921070D01*
X197455971Y-64993641D01*
X197412429Y-65042022D01*
X197368886Y-65066212D01*
X197913172Y-64921070D02*
X197956715Y-64921070D01*
X198000258Y-64945260D01*
X198022029Y-64969450D01*
X198043800Y-65017831D01*
X198065572Y-65114593D01*
X198065572Y-65235546D01*
X198043800Y-65332308D01*
X198022029Y-65380689D01*
X198000258Y-65404879D01*
X197956715Y-65429070D01*
X197913172Y-65429070D01*
X197869629Y-65404879D01*
X197847858Y-65380689D01*
X197826086Y-65332308D01*
X197804315Y-65235546D01*
X197804315Y-65114593D01*
X197826086Y-65017831D01*
X197847858Y-64969450D01*
X197869629Y-64945260D01*
X197913172Y-64921070D01*
X198348601Y-64921070D02*
X198392144Y-64921070D01*
X198435687Y-64945260D01*
X198457458Y-64969450D01*
X198479229Y-65017831D01*
X198501001Y-65114593D01*
X198501001Y-65235546D01*
X198479229Y-65332308D01*
X198457458Y-65380689D01*
X198435687Y-65404879D01*
X198392144Y-65429070D01*
X198348601Y-65429070D01*
X198305058Y-65404879D01*
X198283287Y-65380689D01*
X198261515Y-65332308D01*
X198239744Y-65235546D01*
X198239744Y-65114593D01*
X198261515Y-65017831D01*
X198283287Y-64969450D01*
X198305058Y-64945260D01*
X198348601Y-64921070D01*
X198696944Y-65429070D02*
X198696944Y-64921070D01*
X198740487Y-65235546D02*
X198871116Y-65429070D01*
X198871116Y-65090403D02*
X198696944Y-65283927D01*
D16*
X192804143Y-49874714D02*
X192550143Y-49511857D01*
X192368715Y-49874714D02*
X192368715Y-49112714D01*
X192659000Y-49112714D01*
X192731572Y-49149000D01*
X192767857Y-49185286D01*
X192804143Y-49257857D01*
X192804143Y-49366714D01*
X192767857Y-49439286D01*
X192731572Y-49475571D01*
X192659000Y-49511857D01*
X192368715Y-49511857D01*
X193529857Y-49874714D02*
X193094429Y-49874714D01*
X193312143Y-49874714D02*
X193312143Y-49112714D01*
X193239572Y-49221571D01*
X193167000Y-49294143D01*
X193094429Y-49330429D01*
X194183000Y-49366714D02*
X194183000Y-49874714D01*
X194001571Y-49076429D02*
X193820143Y-49620714D01*
X194291857Y-49620714D01*
X196224071Y-42684095D02*
X197149357Y-42684095D01*
X197258214Y-42635714D01*
X197312643Y-42587333D01*
X197367071Y-42490571D01*
X197367071Y-42297048D01*
X197312643Y-42200286D01*
X197258214Y-42151905D01*
X197149357Y-42103524D01*
X196224071Y-42103524D01*
X196605071Y-41184286D02*
X197367071Y-41184286D01*
X196169643Y-41426190D02*
X196986071Y-41668095D01*
X196986071Y-41039143D01*
X199559333Y-44595142D02*
X199559333Y-44111333D01*
X199849619Y-44691904D02*
X198833619Y-44353237D01*
X199849619Y-44014571D01*
X199752857Y-43095333D02*
X199801238Y-43143714D01*
X199849619Y-43288857D01*
X199849619Y-43385619D01*
X199801238Y-43530761D01*
X199704476Y-43627523D01*
X199607714Y-43675904D01*
X199414190Y-43724285D01*
X199269048Y-43724285D01*
X199075524Y-43675904D01*
X198978762Y-43627523D01*
X198882000Y-43530761D01*
X198833619Y-43385619D01*
X198833619Y-43288857D01*
X198882000Y-43143714D01*
X198930381Y-43095333D01*
X199801238Y-42708285D02*
X199849619Y-42563142D01*
X199849619Y-42321238D01*
X199801238Y-42224476D01*
X199752857Y-42176095D01*
X199656095Y-42127714D01*
X199559333Y-42127714D01*
X199462571Y-42176095D01*
X199414190Y-42224476D01*
X199365810Y-42321238D01*
X199317429Y-42514761D01*
X199269048Y-42611523D01*
X199220667Y-42659904D01*
X199123905Y-42708285D01*
X199027143Y-42708285D01*
X198930381Y-42659904D01*
X198882000Y-42611523D01*
X198833619Y-42514761D01*
X198833619Y-42272857D01*
X198882000Y-42127714D01*
X198833619Y-41789047D02*
X198833619Y-41111714D01*
X199849619Y-41547142D01*
X199849619Y-40192476D02*
X199849619Y-40773047D01*
X199849619Y-40482761D02*
X198833619Y-40482761D01*
X198978762Y-40579523D01*
X199075524Y-40676285D01*
X199123905Y-40773047D01*
X198930381Y-39805428D02*
X198882000Y-39757047D01*
X198833619Y-39660285D01*
X198833619Y-39418381D01*
X198882000Y-39321619D01*
X198930381Y-39273238D01*
X199027143Y-39224857D01*
X199123905Y-39224857D01*
X199269048Y-39273238D01*
X199849619Y-39853809D01*
X199849619Y-39224857D01*
D10*
X207842262Y-48319524D02*
X207812500Y-48379048D01*
X207752976Y-48438571D01*
X207663690Y-48527857D01*
X207633929Y-48587381D01*
X207633929Y-48646905D01*
X207782738Y-48617143D02*
X207752976Y-48676667D01*
X207693452Y-48736190D01*
X207574405Y-48765952D01*
X207366071Y-48765952D01*
X207247024Y-48736190D01*
X207187500Y-48676667D01*
X207157738Y-48617143D01*
X207157738Y-48498095D01*
X207187500Y-48438571D01*
X207247024Y-48379048D01*
X207366071Y-48349286D01*
X207574405Y-48349286D01*
X207693452Y-48379048D01*
X207752976Y-48438571D01*
X207782738Y-48498095D01*
X207782738Y-48617143D01*
X207366071Y-47813571D02*
X207782738Y-47813571D01*
X207127976Y-47962381D02*
X207574405Y-48111190D01*
X207574405Y-47724286D01*
D17*
X210070096Y-39321619D02*
X210070096Y-38305619D01*
X210457143Y-38305619D01*
X210553905Y-38354000D01*
X210602286Y-38402381D01*
X210650667Y-38499143D01*
X210650667Y-38644286D01*
X210602286Y-38741048D01*
X210553905Y-38789429D01*
X210457143Y-38837810D01*
X210070096Y-38837810D01*
X211521524Y-38644286D02*
X211521524Y-39321619D01*
X211279620Y-38257238D02*
X211037715Y-38982952D01*
X211666667Y-38982952D01*
D10*
X215462262Y-48319524D02*
X215432500Y-48379048D01*
X215372976Y-48438571D01*
X215283690Y-48527857D01*
X215253929Y-48587381D01*
X215253929Y-48646905D01*
X215402738Y-48617143D02*
X215372976Y-48676667D01*
X215313452Y-48736190D01*
X215194405Y-48765952D01*
X214986071Y-48765952D01*
X214867024Y-48736190D01*
X214807500Y-48676667D01*
X214777738Y-48617143D01*
X214777738Y-48498095D01*
X214807500Y-48438571D01*
X214867024Y-48379048D01*
X214986071Y-48349286D01*
X215194405Y-48349286D01*
X215313452Y-48379048D01*
X215372976Y-48438571D01*
X215402738Y-48498095D01*
X215402738Y-48617143D01*
X214777738Y-48140952D02*
X214777738Y-47754048D01*
X215015833Y-47962381D01*
X215015833Y-47873095D01*
X215045595Y-47813571D01*
X215075357Y-47783809D01*
X215134881Y-47754048D01*
X215283690Y-47754048D01*
X215343214Y-47783809D01*
X215372976Y-47813571D01*
X215402738Y-47873095D01*
X215402738Y-48051667D01*
X215372976Y-48111190D01*
X215343214Y-48140952D01*
X207842262Y-62289524D02*
X207812500Y-62349048D01*
X207752976Y-62408571D01*
X207663690Y-62497857D01*
X207633929Y-62557381D01*
X207633929Y-62616905D01*
X207782738Y-62587143D02*
X207752976Y-62646667D01*
X207693452Y-62706190D01*
X207574405Y-62735952D01*
X207366071Y-62735952D01*
X207247024Y-62706190D01*
X207187500Y-62646667D01*
X207157738Y-62587143D01*
X207157738Y-62468095D01*
X207187500Y-62408571D01*
X207247024Y-62349048D01*
X207366071Y-62319286D01*
X207574405Y-62319286D01*
X207693452Y-62349048D01*
X207752976Y-62408571D01*
X207782738Y-62468095D01*
X207782738Y-62587143D01*
X207217262Y-62081190D02*
X207187500Y-62051428D01*
X207157738Y-61991905D01*
X207157738Y-61843095D01*
X207187500Y-61783571D01*
X207217262Y-61753809D01*
X207276786Y-61724048D01*
X207336310Y-61724048D01*
X207425595Y-61753809D01*
X207782738Y-62110952D01*
X207782738Y-61724048D01*
D12*
X179578095Y-59232381D02*
X179578095Y-60041905D01*
X179625714Y-60137143D01*
X179673333Y-60184762D01*
X179768571Y-60232381D01*
X179959048Y-60232381D01*
X180054286Y-60184762D01*
X180101905Y-60137143D01*
X180149524Y-60041905D01*
X180149524Y-59232381D01*
X180578095Y-59327619D02*
X180625714Y-59280000D01*
X180720952Y-59232381D01*
X180959048Y-59232381D01*
X181054286Y-59280000D01*
X181101905Y-59327619D01*
X181149524Y-59422857D01*
X181149524Y-59518095D01*
X181101905Y-59660952D01*
X180530476Y-60232381D01*
X181149524Y-60232381D01*
X177411429Y-77832381D02*
X177411429Y-76832381D01*
X177411429Y-77308571D02*
X177982858Y-77308571D01*
X177982858Y-77832381D02*
X177982858Y-76832381D01*
X178459048Y-77832381D02*
X178459048Y-76832381D01*
X178935238Y-77832381D02*
X178935238Y-76832381D01*
X179316191Y-76832381D01*
X179411429Y-76880000D01*
X179459048Y-76927619D01*
X179506667Y-77022857D01*
X179506667Y-77165714D01*
X179459048Y-77260952D01*
X179411429Y-77308571D01*
X179316191Y-77356190D01*
X178935238Y-77356190D01*
X180363810Y-77165714D02*
X180363810Y-77832381D01*
X180125714Y-76784762D02*
X179887619Y-77499048D01*
X180506667Y-77499048D01*
X181078095Y-76832381D02*
X181173334Y-76832381D01*
X181268572Y-76880000D01*
X181316191Y-76927619D01*
X181363810Y-77022857D01*
X181411429Y-77213333D01*
X181411429Y-77451429D01*
X181363810Y-77641905D01*
X181316191Y-77737143D01*
X181268572Y-77784762D01*
X181173334Y-77832381D01*
X181078095Y-77832381D01*
X180982857Y-77784762D01*
X180935238Y-77737143D01*
X180887619Y-77641905D01*
X180840000Y-77451429D01*
X180840000Y-77213333D01*
X180887619Y-77022857D01*
X180935238Y-76927619D01*
X180982857Y-76880000D01*
X181078095Y-76832381D01*
X181982857Y-77260952D02*
X181887619Y-77213333D01*
X181840000Y-77165714D01*
X181792381Y-77070476D01*
X181792381Y-77022857D01*
X181840000Y-76927619D01*
X181887619Y-76880000D01*
X181982857Y-76832381D01*
X182173334Y-76832381D01*
X182268572Y-76880000D01*
X182316191Y-76927619D01*
X182363810Y-77022857D01*
X182363810Y-77070476D01*
X182316191Y-77165714D01*
X182268572Y-77213333D01*
X182173334Y-77260952D01*
X181982857Y-77260952D01*
X181887619Y-77308571D01*
X181840000Y-77356190D01*
X181792381Y-77451429D01*
X181792381Y-77641905D01*
X181840000Y-77737143D01*
X181887619Y-77784762D01*
X181982857Y-77832381D01*
X182173334Y-77832381D01*
X182268572Y-77784762D01*
X182316191Y-77737143D01*
X182363810Y-77641905D01*
X182363810Y-77451429D01*
X182316191Y-77356190D01*
X182268572Y-77308571D01*
X182173334Y-77260952D01*
X183220953Y-76832381D02*
X183030476Y-76832381D01*
X182935238Y-76880000D01*
X182887619Y-76927619D01*
X182792381Y-77070476D01*
X182744762Y-77260952D01*
X182744762Y-77641905D01*
X182792381Y-77737143D01*
X182840000Y-77784762D01*
X182935238Y-77832381D01*
X183125715Y-77832381D01*
X183220953Y-77784762D01*
X183268572Y-77737143D01*
X183316191Y-77641905D01*
X183316191Y-77403810D01*
X183268572Y-77308571D01*
X183220953Y-77260952D01*
X183125715Y-77213333D01*
X182935238Y-77213333D01*
X182840000Y-77260952D01*
X182792381Y-77308571D01*
X182744762Y-77403810D01*
D16*
X192550143Y-62574714D02*
X192296143Y-62211857D01*
X192114715Y-62574714D02*
X192114715Y-61812714D01*
X192405000Y-61812714D01*
X192477572Y-61849000D01*
X192513857Y-61885286D01*
X192550143Y-61957857D01*
X192550143Y-62066714D01*
X192513857Y-62139286D01*
X192477572Y-62175571D01*
X192405000Y-62211857D01*
X192114715Y-62211857D01*
X193275857Y-62574714D02*
X192840429Y-62574714D01*
X193058143Y-62574714D02*
X193058143Y-61812714D01*
X192985572Y-61921571D01*
X192913000Y-61994143D01*
X192840429Y-62030429D01*
X193566143Y-61885286D02*
X193602429Y-61849000D01*
X193675000Y-61812714D01*
X193856429Y-61812714D01*
X193929000Y-61849000D01*
X193965286Y-61885286D01*
X194001571Y-61957857D01*
X194001571Y-62030429D01*
X193965286Y-62139286D01*
X193529857Y-62574714D01*
X194001571Y-62574714D01*
D17*
X210070096Y-67261619D02*
X210070096Y-66245619D01*
X210457143Y-66245619D01*
X210553905Y-66294000D01*
X210602286Y-66342381D01*
X210650667Y-66439143D01*
X210650667Y-66584286D01*
X210602286Y-66681048D01*
X210553905Y-66729429D01*
X210457143Y-66777810D01*
X210070096Y-66777810D01*
X211569905Y-66245619D02*
X211086096Y-66245619D01*
X211037715Y-66729429D01*
X211086096Y-66681048D01*
X211182858Y-66632667D01*
X211424762Y-66632667D01*
X211521524Y-66681048D01*
X211569905Y-66729429D01*
X211618286Y-66826190D01*
X211618286Y-67068095D01*
X211569905Y-67164857D01*
X211521524Y-67213238D01*
X211424762Y-67261619D01*
X211182858Y-67261619D01*
X211086096Y-67213238D01*
X211037715Y-67164857D01*
D15*
X192900300Y-40755207D02*
X192878529Y-40779035D01*
X192813215Y-40802862D01*
X192769672Y-40802862D01*
X192704357Y-40779035D01*
X192660815Y-40731380D01*
X192639043Y-40683724D01*
X192617272Y-40588414D01*
X192617272Y-40516931D01*
X192639043Y-40421620D01*
X192660815Y-40373965D01*
X192704357Y-40326310D01*
X192769672Y-40302482D01*
X192813215Y-40302482D01*
X192878529Y-40326310D01*
X192900300Y-40350138D01*
X193313957Y-40302482D02*
X193096243Y-40302482D01*
X193074472Y-40540759D01*
X193096243Y-40516931D01*
X193139786Y-40493103D01*
X193248643Y-40493103D01*
X193292186Y-40516931D01*
X193313957Y-40540759D01*
X193335729Y-40588414D01*
X193335729Y-40707552D01*
X193313957Y-40755207D01*
X193292186Y-40779035D01*
X193248643Y-40802862D01*
X193139786Y-40802862D01*
X193096243Y-40779035D01*
X193074472Y-40755207D01*
X192963800Y-42569070D02*
X192702543Y-42569070D01*
X192833171Y-42569070D02*
X192833171Y-42061070D01*
X192789628Y-42133641D01*
X192746086Y-42182022D01*
X192702543Y-42206212D01*
X193159743Y-42230403D02*
X193159743Y-42569070D01*
X193159743Y-42278784D02*
X193181515Y-42254593D01*
X193225057Y-42230403D01*
X193290372Y-42230403D01*
X193333915Y-42254593D01*
X193355686Y-42302974D01*
X193355686Y-42569070D01*
X192900300Y-68695207D02*
X192878529Y-68719035D01*
X192813215Y-68742862D01*
X192769672Y-68742862D01*
X192704357Y-68719035D01*
X192660815Y-68671380D01*
X192639043Y-68623724D01*
X192617272Y-68528414D01*
X192617272Y-68456931D01*
X192639043Y-68361620D01*
X192660815Y-68313965D01*
X192704357Y-68266310D01*
X192769672Y-68242482D01*
X192813215Y-68242482D01*
X192878529Y-68266310D01*
X192900300Y-68290138D01*
X193292186Y-68242482D02*
X193205100Y-68242482D01*
X193161557Y-68266310D01*
X193139786Y-68290138D01*
X193096243Y-68361620D01*
X193074472Y-68456931D01*
X193074472Y-68647552D01*
X193096243Y-68695207D01*
X193118015Y-68719035D01*
X193161557Y-68742862D01*
X193248643Y-68742862D01*
X193292186Y-68719035D01*
X193313957Y-68695207D01*
X193335729Y-68647552D01*
X193335729Y-68528414D01*
X193313957Y-68480759D01*
X193292186Y-68456931D01*
X193248643Y-68433103D01*
X193161557Y-68433103D01*
X193118015Y-68456931D01*
X193096243Y-68480759D01*
X193074472Y-68528414D01*
X192963800Y-70509070D02*
X192702543Y-70509070D01*
X192833171Y-70509070D02*
X192833171Y-70001070D01*
X192789628Y-70073641D01*
X192746086Y-70122022D01*
X192702543Y-70146212D01*
X193159743Y-70170403D02*
X193159743Y-70509070D01*
X193159743Y-70218784D02*
X193181515Y-70194593D01*
X193225057Y-70170403D01*
X193290372Y-70170403D01*
X193333915Y-70194593D01*
X193355686Y-70242974D01*
X193355686Y-70509070D01*
X210264828Y-64996362D02*
X210264828Y-64495982D01*
X210373685Y-64495982D01*
X210439000Y-64519810D01*
X210482542Y-64567465D01*
X210504314Y-64615120D01*
X210526085Y-64710431D01*
X210526085Y-64781914D01*
X210504314Y-64877224D01*
X210482542Y-64924880D01*
X210439000Y-64972535D01*
X210373685Y-64996362D01*
X210264828Y-64996362D01*
X210961514Y-64996362D02*
X210700257Y-64996362D01*
X210830885Y-64996362D02*
X210830885Y-64495982D01*
X210787342Y-64567465D01*
X210743800Y-64615120D01*
X210700257Y-64638948D01*
X211244543Y-64495982D02*
X211288086Y-64495982D01*
X211331629Y-64519810D01*
X211353400Y-64543638D01*
X211375171Y-64591293D01*
X211396943Y-64686603D01*
X211396943Y-64805741D01*
X211375171Y-64901052D01*
X211353400Y-64948707D01*
X211331629Y-64972535D01*
X211288086Y-64996362D01*
X211244543Y-64996362D01*
X211201000Y-64972535D01*
X211179229Y-64948707D01*
X211157457Y-64901052D01*
X211135686Y-64805741D01*
X211135686Y-64686603D01*
X211157457Y-64591293D01*
X211179229Y-64543638D01*
X211201000Y-64519810D01*
X211244543Y-64495982D01*
X189596486Y-56539070D02*
X189596486Y-56031070D01*
X189705343Y-56031070D01*
X189770658Y-56055260D01*
X189814200Y-56103641D01*
X189835972Y-56152022D01*
X189857743Y-56248784D01*
X189857743Y-56321355D01*
X189835972Y-56418117D01*
X189814200Y-56466498D01*
X189770658Y-56514879D01*
X189705343Y-56539070D01*
X189596486Y-56539070D01*
X190053686Y-56539070D02*
X190053686Y-56031070D01*
X190358486Y-56031070D02*
X190445572Y-56031070D01*
X190489114Y-56055260D01*
X190532657Y-56103641D01*
X190554429Y-56200403D01*
X190554429Y-56369736D01*
X190532657Y-56466498D01*
X190489114Y-56514879D01*
X190445572Y-56539070D01*
X190358486Y-56539070D01*
X190314943Y-56514879D01*
X190271400Y-56466498D01*
X190249629Y-56369736D01*
X190249629Y-56200403D01*
X190271400Y-56103641D01*
X190314943Y-56055260D01*
X190358486Y-56031070D01*
X190750371Y-56539070D02*
X190750371Y-56031070D01*
X190859228Y-56031070D01*
X190924543Y-56055260D01*
X190968085Y-56103641D01*
X190989857Y-56152022D01*
X191011628Y-56248784D01*
X191011628Y-56321355D01*
X190989857Y-56418117D01*
X190968085Y-56466498D01*
X190924543Y-56514879D01*
X190859228Y-56539070D01*
X190750371Y-56539070D01*
X191207571Y-56272974D02*
X191359971Y-56272974D01*
X191425285Y-56539070D02*
X191207571Y-56539070D01*
X191207571Y-56031070D01*
X191425285Y-56031070D01*
X189881328Y-40802862D02*
X189881328Y-40302482D01*
X189990185Y-40302482D01*
X190055500Y-40326310D01*
X190099042Y-40373965D01*
X190120814Y-40421620D01*
X190142585Y-40516931D01*
X190142585Y-40588414D01*
X190120814Y-40683724D01*
X190099042Y-40731380D01*
X190055500Y-40779035D01*
X189990185Y-40802862D01*
X189881328Y-40802862D01*
X190578014Y-40802862D02*
X190316757Y-40802862D01*
X190447385Y-40802862D02*
X190447385Y-40302482D01*
X190403842Y-40373965D01*
X190360300Y-40421620D01*
X190316757Y-40445448D01*
X191013443Y-40802862D02*
X190752186Y-40802862D01*
X190882814Y-40802862D02*
X190882814Y-40302482D01*
X190839271Y-40373965D01*
X190795729Y-40421620D01*
X190752186Y-40445448D01*
X189596486Y-42569070D02*
X189596486Y-42061070D01*
X189705343Y-42061070D01*
X189770658Y-42085260D01*
X189814200Y-42133641D01*
X189835972Y-42182022D01*
X189857743Y-42278784D01*
X189857743Y-42351355D01*
X189835972Y-42448117D01*
X189814200Y-42496498D01*
X189770658Y-42544879D01*
X189705343Y-42569070D01*
X189596486Y-42569070D01*
X190053686Y-42569070D02*
X190053686Y-42061070D01*
X190358486Y-42061070D02*
X190445572Y-42061070D01*
X190489114Y-42085260D01*
X190532657Y-42133641D01*
X190554429Y-42230403D01*
X190554429Y-42399736D01*
X190532657Y-42496498D01*
X190489114Y-42544879D01*
X190445572Y-42569070D01*
X190358486Y-42569070D01*
X190314943Y-42544879D01*
X190271400Y-42496498D01*
X190249629Y-42399736D01*
X190249629Y-42230403D01*
X190271400Y-42133641D01*
X190314943Y-42085260D01*
X190358486Y-42061070D01*
X190750371Y-42569070D02*
X190750371Y-42061070D01*
X190859228Y-42061070D01*
X190924543Y-42085260D01*
X190968085Y-42133641D01*
X190989857Y-42182022D01*
X191011628Y-42278784D01*
X191011628Y-42351355D01*
X190989857Y-42448117D01*
X190968085Y-42496498D01*
X190924543Y-42544879D01*
X190859228Y-42569070D01*
X190750371Y-42569070D01*
X191207571Y-42302974D02*
X191359971Y-42302974D01*
X191425285Y-42569070D02*
X191207571Y-42569070D01*
X191207571Y-42061070D01*
X191425285Y-42061070D01*
X190516328Y-68742862D02*
X190516328Y-68242482D01*
X190625185Y-68242482D01*
X190690500Y-68266310D01*
X190734042Y-68313965D01*
X190755814Y-68361620D01*
X190777585Y-68456931D01*
X190777585Y-68528414D01*
X190755814Y-68623724D01*
X190734042Y-68671380D01*
X190690500Y-68719035D01*
X190625185Y-68742862D01*
X190516328Y-68742862D01*
X191213014Y-68742862D02*
X190951757Y-68742862D01*
X191082385Y-68742862D02*
X191082385Y-68242482D01*
X191038842Y-68313965D01*
X190995300Y-68361620D01*
X190951757Y-68385448D01*
X191387186Y-68290138D02*
X191408957Y-68266310D01*
X191452500Y-68242482D01*
X191561357Y-68242482D01*
X191604900Y-68266310D01*
X191626671Y-68290138D01*
X191648443Y-68337793D01*
X191648443Y-68385448D01*
X191626671Y-68456931D01*
X191365414Y-68742862D01*
X191648443Y-68742862D01*
X190231486Y-70509070D02*
X190231486Y-70001070D01*
X190340343Y-70001070D01*
X190405658Y-70025260D01*
X190449200Y-70073641D01*
X190470972Y-70122022D01*
X190492743Y-70218784D01*
X190492743Y-70291355D01*
X190470972Y-70388117D01*
X190449200Y-70436498D01*
X190405658Y-70484879D01*
X190340343Y-70509070D01*
X190231486Y-70509070D01*
X190688686Y-70509070D02*
X190688686Y-70001070D01*
X190993486Y-70001070D02*
X191080572Y-70001070D01*
X191124114Y-70025260D01*
X191167657Y-70073641D01*
X191189429Y-70170403D01*
X191189429Y-70339736D01*
X191167657Y-70436498D01*
X191124114Y-70484879D01*
X191080572Y-70509070D01*
X190993486Y-70509070D01*
X190949943Y-70484879D01*
X190906400Y-70436498D01*
X190884629Y-70339736D01*
X190884629Y-70170403D01*
X190906400Y-70073641D01*
X190949943Y-70025260D01*
X190993486Y-70001070D01*
X191385371Y-70509070D02*
X191385371Y-70001070D01*
X191494228Y-70001070D01*
X191559543Y-70025260D01*
X191603085Y-70073641D01*
X191624857Y-70122022D01*
X191646628Y-70218784D01*
X191646628Y-70291355D01*
X191624857Y-70388117D01*
X191603085Y-70436498D01*
X191559543Y-70484879D01*
X191494228Y-70509070D01*
X191385371Y-70509070D01*
X191842571Y-70242974D02*
X191994971Y-70242974D01*
X192060285Y-70509070D02*
X191842571Y-70509070D01*
X191842571Y-70001070D01*
X192060285Y-70001070D01*
X203060300Y-42072862D02*
X202907900Y-41834586D01*
X202799043Y-42072862D02*
X202799043Y-41572482D01*
X202973215Y-41572482D01*
X203016757Y-41596310D01*
X203038529Y-41620138D01*
X203060300Y-41667793D01*
X203060300Y-41739276D01*
X203038529Y-41786931D01*
X203016757Y-41810759D01*
X202973215Y-41834586D01*
X202799043Y-41834586D01*
X203452186Y-41739276D02*
X203452186Y-42072862D01*
X203343329Y-41548655D02*
X203234472Y-41906069D01*
X203517500Y-41906069D01*
X203025829Y-43839070D02*
X202764572Y-43839070D01*
X202895200Y-43839070D02*
X202895200Y-43331070D01*
X202851657Y-43403641D01*
X202808115Y-43452022D01*
X202764572Y-43476212D01*
X203221772Y-43839070D02*
X203221772Y-43500403D01*
X203221772Y-43548784D02*
X203243544Y-43524593D01*
X203287086Y-43500403D01*
X203352401Y-43500403D01*
X203395944Y-43524593D01*
X203417715Y-43572974D01*
X203417715Y-43839070D01*
X203417715Y-43572974D02*
X203439486Y-43524593D01*
X203483029Y-43500403D01*
X203548344Y-43500403D01*
X203591886Y-43524593D01*
X203613658Y-43572974D01*
X203613658Y-43839070D01*
X203060300Y-70012862D02*
X202907900Y-69774586D01*
X202799043Y-70012862D02*
X202799043Y-69512482D01*
X202973215Y-69512482D01*
X203016757Y-69536310D01*
X203038529Y-69560138D01*
X203060300Y-69607793D01*
X203060300Y-69679276D01*
X203038529Y-69726931D01*
X203016757Y-69750759D01*
X202973215Y-69774586D01*
X202799043Y-69774586D01*
X203473957Y-69512482D02*
X203256243Y-69512482D01*
X203234472Y-69750759D01*
X203256243Y-69726931D01*
X203299786Y-69703103D01*
X203408643Y-69703103D01*
X203452186Y-69726931D01*
X203473957Y-69750759D01*
X203495729Y-69798414D01*
X203495729Y-69917552D01*
X203473957Y-69965207D01*
X203452186Y-69989035D01*
X203408643Y-70012862D01*
X203299786Y-70012862D01*
X203256243Y-69989035D01*
X203234472Y-69965207D01*
X203025829Y-71779070D02*
X202764572Y-71779070D01*
X202895200Y-71779070D02*
X202895200Y-71271070D01*
X202851657Y-71343641D01*
X202808115Y-71392022D01*
X202764572Y-71416212D01*
X203221772Y-71779070D02*
X203221772Y-71440403D01*
X203221772Y-71488784D02*
X203243544Y-71464593D01*
X203287086Y-71440403D01*
X203352401Y-71440403D01*
X203395944Y-71464593D01*
X203417715Y-71512974D01*
X203417715Y-71779070D01*
X203417715Y-71512974D02*
X203439486Y-71464593D01*
X203483029Y-71440403D01*
X203548344Y-71440403D01*
X203591886Y-71464593D01*
X203613658Y-71512974D01*
X203613658Y-71779070D01*
X197980300Y-49692862D02*
X197827900Y-49454586D01*
X197719043Y-49692862D02*
X197719043Y-49192482D01*
X197893215Y-49192482D01*
X197936757Y-49216310D01*
X197958529Y-49240138D01*
X197980300Y-49287793D01*
X197980300Y-49359276D01*
X197958529Y-49406931D01*
X197936757Y-49430759D01*
X197893215Y-49454586D01*
X197719043Y-49454586D01*
X198132700Y-49192482D02*
X198437500Y-49192482D01*
X198241557Y-49692862D01*
X197630143Y-51459070D02*
X197368886Y-51459070D01*
X197499514Y-51459070D02*
X197499514Y-50951070D01*
X197455971Y-51023641D01*
X197412429Y-51072022D01*
X197368886Y-51096212D01*
X197913172Y-50951070D02*
X197956715Y-50951070D01*
X198000258Y-50975260D01*
X198022029Y-50999450D01*
X198043800Y-51047831D01*
X198065572Y-51144593D01*
X198065572Y-51265546D01*
X198043800Y-51362308D01*
X198022029Y-51410689D01*
X198000258Y-51434879D01*
X197956715Y-51459070D01*
X197913172Y-51459070D01*
X197869629Y-51434879D01*
X197847858Y-51410689D01*
X197826086Y-51362308D01*
X197804315Y-51265546D01*
X197804315Y-51144593D01*
X197826086Y-51047831D01*
X197847858Y-50999450D01*
X197869629Y-50975260D01*
X197913172Y-50951070D01*
X198348601Y-50951070D02*
X198392144Y-50951070D01*
X198435687Y-50975260D01*
X198457458Y-50999450D01*
X198479229Y-51047831D01*
X198501001Y-51144593D01*
X198501001Y-51265546D01*
X198479229Y-51362308D01*
X198457458Y-51410689D01*
X198435687Y-51434879D01*
X198392144Y-51459070D01*
X198348601Y-51459070D01*
X198305058Y-51434879D01*
X198283287Y-51410689D01*
X198261515Y-51362308D01*
X198239744Y-51265546D01*
X198239744Y-51144593D01*
X198261515Y-51047831D01*
X198283287Y-50999450D01*
X198305058Y-50975260D01*
X198348601Y-50951070D01*
X198696944Y-51459070D02*
X198696944Y-50951070D01*
X198740487Y-51265546D02*
X198871116Y-51459070D01*
X198871116Y-51120403D02*
X198696944Y-51313927D01*
X191932862Y-57289700D02*
X191694586Y-57442100D01*
X191932862Y-57550957D02*
X191432482Y-57550957D01*
X191432482Y-57376785D01*
X191456310Y-57333243D01*
X191480138Y-57311471D01*
X191527793Y-57289700D01*
X191599276Y-57289700D01*
X191646931Y-57311471D01*
X191670759Y-57333243D01*
X191694586Y-57376785D01*
X191694586Y-57550957D01*
X191646931Y-57028443D02*
X191623103Y-57071985D01*
X191599276Y-57093757D01*
X191551620Y-57115528D01*
X191527793Y-57115528D01*
X191480138Y-57093757D01*
X191456310Y-57071985D01*
X191432482Y-57028443D01*
X191432482Y-56941357D01*
X191456310Y-56897814D01*
X191480138Y-56876043D01*
X191527793Y-56854271D01*
X191551620Y-56854271D01*
X191599276Y-56876043D01*
X191623103Y-56897814D01*
X191646931Y-56941357D01*
X191646931Y-57028443D01*
X191670759Y-57071985D01*
X191694586Y-57093757D01*
X191742241Y-57115528D01*
X191837552Y-57115528D01*
X191885207Y-57093757D01*
X191909035Y-57071985D01*
X191932862Y-57028443D01*
X191932862Y-56941357D01*
X191909035Y-56897814D01*
X191885207Y-56876043D01*
X191837552Y-56854271D01*
X191742241Y-56854271D01*
X191694586Y-56876043D01*
X191670759Y-56897814D01*
X191646931Y-56941357D01*
X193239450Y-57465685D02*
X193215260Y-57443914D01*
X193191070Y-57400371D01*
X193191070Y-57291514D01*
X193215260Y-57247971D01*
X193239450Y-57226200D01*
X193287831Y-57204428D01*
X193336212Y-57204428D01*
X193408784Y-57226200D01*
X193699070Y-57487457D01*
X193699070Y-57204428D01*
X193699070Y-57008485D02*
X193191070Y-57008485D01*
X193505546Y-56964942D02*
X193699070Y-56834313D01*
X193360403Y-56834313D02*
X193553927Y-57008485D01*
X191932862Y-43319700D02*
X191694586Y-43472100D01*
X191932862Y-43580957D02*
X191432482Y-43580957D01*
X191432482Y-43406785D01*
X191456310Y-43363243D01*
X191480138Y-43341471D01*
X191527793Y-43319700D01*
X191599276Y-43319700D01*
X191646931Y-43341471D01*
X191670759Y-43363243D01*
X191694586Y-43406785D01*
X191694586Y-43580957D01*
X191932862Y-43101985D02*
X191932862Y-43014900D01*
X191909035Y-42971357D01*
X191885207Y-42949585D01*
X191813724Y-42906043D01*
X191718414Y-42884271D01*
X191527793Y-42884271D01*
X191480138Y-42906043D01*
X191456310Y-42927814D01*
X191432482Y-42971357D01*
X191432482Y-43058443D01*
X191456310Y-43101985D01*
X191480138Y-43123757D01*
X191527793Y-43145528D01*
X191646931Y-43145528D01*
X191694586Y-43123757D01*
X191718414Y-43101985D01*
X191742241Y-43058443D01*
X191742241Y-42971357D01*
X191718414Y-42927814D01*
X191694586Y-42906043D01*
X191646931Y-42884271D01*
X193239450Y-43495685D02*
X193215260Y-43473914D01*
X193191070Y-43430371D01*
X193191070Y-43321514D01*
X193215260Y-43277971D01*
X193239450Y-43256200D01*
X193287831Y-43234428D01*
X193336212Y-43234428D01*
X193408784Y-43256200D01*
X193699070Y-43517457D01*
X193699070Y-43234428D01*
X193699070Y-43038485D02*
X193191070Y-43038485D01*
X193505546Y-42994942D02*
X193699070Y-42864313D01*
X193360403Y-42864313D02*
X193553927Y-43038485D01*
X191932862Y-71477415D02*
X191694586Y-71629815D01*
X191932862Y-71738672D02*
X191432482Y-71738672D01*
X191432482Y-71564500D01*
X191456310Y-71520958D01*
X191480138Y-71499186D01*
X191527793Y-71477415D01*
X191599276Y-71477415D01*
X191646931Y-71499186D01*
X191670759Y-71520958D01*
X191694586Y-71564500D01*
X191694586Y-71738672D01*
X191932862Y-71041986D02*
X191932862Y-71303243D01*
X191932862Y-71172615D02*
X191432482Y-71172615D01*
X191503965Y-71216158D01*
X191551620Y-71259700D01*
X191575448Y-71303243D01*
X191432482Y-70758957D02*
X191432482Y-70715414D01*
X191456310Y-70671871D01*
X191480138Y-70650100D01*
X191527793Y-70628329D01*
X191623103Y-70606557D01*
X191742241Y-70606557D01*
X191837552Y-70628329D01*
X191885207Y-70650100D01*
X191909035Y-70671871D01*
X191932862Y-70715414D01*
X191932862Y-70758957D01*
X191909035Y-70802500D01*
X191885207Y-70824271D01*
X191837552Y-70846043D01*
X191742241Y-70867814D01*
X191623103Y-70867814D01*
X191527793Y-70846043D01*
X191480138Y-70824271D01*
X191456310Y-70802500D01*
X191432482Y-70758957D01*
X193239450Y-71435685D02*
X193215260Y-71413914D01*
X193191070Y-71370371D01*
X193191070Y-71261514D01*
X193215260Y-71217971D01*
X193239450Y-71196200D01*
X193287831Y-71174428D01*
X193336212Y-71174428D01*
X193408784Y-71196200D01*
X193699070Y-71457457D01*
X193699070Y-71174428D01*
X193699070Y-70978485D02*
X193191070Y-70978485D01*
X193505546Y-70934942D02*
X193699070Y-70804313D01*
X193360403Y-70804313D02*
X193553927Y-70978485D01*
X197762585Y-77632862D02*
X197610185Y-77394586D01*
X197501328Y-77632862D02*
X197501328Y-77132482D01*
X197675500Y-77132482D01*
X197719042Y-77156310D01*
X197740814Y-77180138D01*
X197762585Y-77227793D01*
X197762585Y-77299276D01*
X197740814Y-77346931D01*
X197719042Y-77370759D01*
X197675500Y-77394586D01*
X197501328Y-77394586D01*
X198198014Y-77632862D02*
X197936757Y-77632862D01*
X198067385Y-77632862D02*
X198067385Y-77132482D01*
X198023842Y-77203965D01*
X197980300Y-77251620D01*
X197936757Y-77275448D01*
X198633443Y-77632862D02*
X198372186Y-77632862D01*
X198502814Y-77632862D02*
X198502814Y-77132482D01*
X198459271Y-77203965D01*
X198415729Y-77251620D01*
X198372186Y-77275448D01*
X197630143Y-79399070D02*
X197368886Y-79399070D01*
X197499514Y-79399070D02*
X197499514Y-78891070D01*
X197455971Y-78963641D01*
X197412429Y-79012022D01*
X197368886Y-79036212D01*
X197913172Y-78891070D02*
X197956715Y-78891070D01*
X198000258Y-78915260D01*
X198022029Y-78939450D01*
X198043800Y-78987831D01*
X198065572Y-79084593D01*
X198065572Y-79205546D01*
X198043800Y-79302308D01*
X198022029Y-79350689D01*
X198000258Y-79374879D01*
X197956715Y-79399070D01*
X197913172Y-79399070D01*
X197869629Y-79374879D01*
X197847858Y-79350689D01*
X197826086Y-79302308D01*
X197804315Y-79205546D01*
X197804315Y-79084593D01*
X197826086Y-78987831D01*
X197847858Y-78939450D01*
X197869629Y-78915260D01*
X197913172Y-78891070D01*
X198348601Y-78891070D02*
X198392144Y-78891070D01*
X198435687Y-78915260D01*
X198457458Y-78939450D01*
X198479229Y-78987831D01*
X198501001Y-79084593D01*
X198501001Y-79205546D01*
X198479229Y-79302308D01*
X198457458Y-79350689D01*
X198435687Y-79374879D01*
X198392144Y-79399070D01*
X198348601Y-79399070D01*
X198305058Y-79374879D01*
X198283287Y-79350689D01*
X198261515Y-79302308D01*
X198239744Y-79205546D01*
X198239744Y-79084593D01*
X198261515Y-78987831D01*
X198283287Y-78939450D01*
X198305058Y-78915260D01*
X198348601Y-78891070D01*
X198696944Y-79399070D02*
X198696944Y-78891070D01*
X198740487Y-79205546D02*
X198871116Y-79399070D01*
X198871116Y-79060403D02*
X198696944Y-79253927D01*
D16*
X196224071Y-70624095D02*
X197149357Y-70624095D01*
X197258214Y-70575714D01*
X197312643Y-70527333D01*
X197367071Y-70430571D01*
X197367071Y-70237048D01*
X197312643Y-70140286D01*
X197258214Y-70091905D01*
X197149357Y-70043524D01*
X196224071Y-70043524D01*
X196224071Y-69075905D02*
X196224071Y-69559714D01*
X196768357Y-69608095D01*
X196713929Y-69559714D01*
X196659500Y-69462952D01*
X196659500Y-69221048D01*
X196713929Y-69124286D01*
X196768357Y-69075905D01*
X196877214Y-69027524D01*
X197149357Y-69027524D01*
X197258214Y-69075905D01*
X197312643Y-69124286D01*
X197367071Y-69221048D01*
X197367071Y-69462952D01*
X197312643Y-69559714D01*
X197258214Y-69608095D01*
X199559333Y-72535142D02*
X199559333Y-72051333D01*
X199849619Y-72631904D02*
X198833619Y-72293237D01*
X199849619Y-71954571D01*
X199752857Y-71035333D02*
X199801238Y-71083714D01*
X199849619Y-71228857D01*
X199849619Y-71325619D01*
X199801238Y-71470761D01*
X199704476Y-71567523D01*
X199607714Y-71615904D01*
X199414190Y-71664285D01*
X199269048Y-71664285D01*
X199075524Y-71615904D01*
X198978762Y-71567523D01*
X198882000Y-71470761D01*
X198833619Y-71325619D01*
X198833619Y-71228857D01*
X198882000Y-71083714D01*
X198930381Y-71035333D01*
X199801238Y-70648285D02*
X199849619Y-70503142D01*
X199849619Y-70261238D01*
X199801238Y-70164476D01*
X199752857Y-70116095D01*
X199656095Y-70067714D01*
X199559333Y-70067714D01*
X199462571Y-70116095D01*
X199414190Y-70164476D01*
X199365810Y-70261238D01*
X199317429Y-70454761D01*
X199269048Y-70551523D01*
X199220667Y-70599904D01*
X199123905Y-70648285D01*
X199027143Y-70648285D01*
X198930381Y-70599904D01*
X198882000Y-70551523D01*
X198833619Y-70454761D01*
X198833619Y-70212857D01*
X198882000Y-70067714D01*
X198833619Y-69729047D02*
X198833619Y-69051714D01*
X199849619Y-69487142D01*
X199849619Y-68132476D02*
X199849619Y-68713047D01*
X199849619Y-68422761D02*
X198833619Y-68422761D01*
X198978762Y-68519523D01*
X199075524Y-68616285D01*
X199123905Y-68713047D01*
X198930381Y-67745428D02*
X198882000Y-67697047D01*
X198833619Y-67600285D01*
X198833619Y-67358381D01*
X198882000Y-67261619D01*
X198930381Y-67213238D01*
X199027143Y-67164857D01*
X199123905Y-67164857D01*
X199269048Y-67213238D01*
X199849619Y-67793809D01*
X199849619Y-67164857D01*
D15*
X192900300Y-54725207D02*
X192878529Y-54749035D01*
X192813215Y-54772862D01*
X192769672Y-54772862D01*
X192704357Y-54749035D01*
X192660815Y-54701380D01*
X192639043Y-54653724D01*
X192617272Y-54558414D01*
X192617272Y-54486931D01*
X192639043Y-54391620D01*
X192660815Y-54343965D01*
X192704357Y-54296310D01*
X192769672Y-54272482D01*
X192813215Y-54272482D01*
X192878529Y-54296310D01*
X192900300Y-54320138D01*
X193292186Y-54439276D02*
X193292186Y-54772862D01*
X193183329Y-54248655D02*
X193074472Y-54606069D01*
X193357500Y-54606069D01*
X192963800Y-56539070D02*
X192702543Y-56539070D01*
X192833171Y-56539070D02*
X192833171Y-56031070D01*
X192789628Y-56103641D01*
X192746086Y-56152022D01*
X192702543Y-56176212D01*
X193159743Y-56200403D02*
X193159743Y-56539070D01*
X193159743Y-56248784D02*
X193181515Y-56224593D01*
X193225057Y-56200403D01*
X193290372Y-56200403D01*
X193333915Y-56224593D01*
X193355686Y-56272974D01*
X193355686Y-56539070D01*
X203060300Y-56042862D02*
X202907900Y-55804586D01*
X202799043Y-56042862D02*
X202799043Y-55542482D01*
X202973215Y-55542482D01*
X203016757Y-55566310D01*
X203038529Y-55590138D01*
X203060300Y-55637793D01*
X203060300Y-55709276D01*
X203038529Y-55756931D01*
X203016757Y-55780759D01*
X202973215Y-55804586D01*
X202799043Y-55804586D01*
X203212700Y-55542482D02*
X203495729Y-55542482D01*
X203343329Y-55733103D01*
X203408643Y-55733103D01*
X203452186Y-55756931D01*
X203473957Y-55780759D01*
X203495729Y-55828414D01*
X203495729Y-55947552D01*
X203473957Y-55995207D01*
X203452186Y-56019035D01*
X203408643Y-56042862D01*
X203278015Y-56042862D01*
X203234472Y-56019035D01*
X203212700Y-55995207D01*
X203025829Y-57809070D02*
X202764572Y-57809070D01*
X202895200Y-57809070D02*
X202895200Y-57301070D01*
X202851657Y-57373641D01*
X202808115Y-57422022D01*
X202764572Y-57446212D01*
X203221772Y-57809070D02*
X203221772Y-57470403D01*
X203221772Y-57518784D02*
X203243544Y-57494593D01*
X203287086Y-57470403D01*
X203352401Y-57470403D01*
X203395944Y-57494593D01*
X203417715Y-57542974D01*
X203417715Y-57809070D01*
X203417715Y-57542974D02*
X203439486Y-57494593D01*
X203483029Y-57470403D01*
X203548344Y-57470403D01*
X203591886Y-57494593D01*
X203613658Y-57542974D01*
X203613658Y-57809070D01*
D16*
X196224071Y-56654095D02*
X197149357Y-56654095D01*
X197258214Y-56605714D01*
X197312643Y-56557333D01*
X197367071Y-56460571D01*
X197367071Y-56267048D01*
X197312643Y-56170286D01*
X197258214Y-56121905D01*
X197149357Y-56073524D01*
X196224071Y-56073524D01*
X196224071Y-55686476D02*
X196224071Y-55057524D01*
X196659500Y-55396190D01*
X196659500Y-55251048D01*
X196713929Y-55154286D01*
X196768357Y-55105905D01*
X196877214Y-55057524D01*
X197149357Y-55057524D01*
X197258214Y-55105905D01*
X197312643Y-55154286D01*
X197367071Y-55251048D01*
X197367071Y-55541333D01*
X197312643Y-55638095D01*
X197258214Y-55686476D01*
X199559333Y-58565142D02*
X199559333Y-58081333D01*
X199849619Y-58661904D02*
X198833619Y-58323237D01*
X199849619Y-57984571D01*
X199752857Y-57065333D02*
X199801238Y-57113714D01*
X199849619Y-57258857D01*
X199849619Y-57355619D01*
X199801238Y-57500761D01*
X199704476Y-57597523D01*
X199607714Y-57645904D01*
X199414190Y-57694285D01*
X199269048Y-57694285D01*
X199075524Y-57645904D01*
X198978762Y-57597523D01*
X198882000Y-57500761D01*
X198833619Y-57355619D01*
X198833619Y-57258857D01*
X198882000Y-57113714D01*
X198930381Y-57065333D01*
X199801238Y-56678285D02*
X199849619Y-56533142D01*
X199849619Y-56291238D01*
X199801238Y-56194476D01*
X199752857Y-56146095D01*
X199656095Y-56097714D01*
X199559333Y-56097714D01*
X199462571Y-56146095D01*
X199414190Y-56194476D01*
X199365810Y-56291238D01*
X199317429Y-56484761D01*
X199269048Y-56581523D01*
X199220667Y-56629904D01*
X199123905Y-56678285D01*
X199027143Y-56678285D01*
X198930381Y-56629904D01*
X198882000Y-56581523D01*
X198833619Y-56484761D01*
X198833619Y-56242857D01*
X198882000Y-56097714D01*
X198833619Y-55759047D02*
X198833619Y-55081714D01*
X199849619Y-55517142D01*
X199849619Y-54162476D02*
X199849619Y-54743047D01*
X199849619Y-54452761D02*
X198833619Y-54452761D01*
X198978762Y-54549523D01*
X199075524Y-54646285D01*
X199123905Y-54743047D01*
X198930381Y-53775428D02*
X198882000Y-53727047D01*
X198833619Y-53630285D01*
X198833619Y-53388381D01*
X198882000Y-53291619D01*
X198930381Y-53243238D01*
X199027143Y-53194857D01*
X199123905Y-53194857D01*
X199269048Y-53243238D01*
X199849619Y-53823809D01*
X199849619Y-53194857D01*
D17*
X210070096Y-53291619D02*
X210070096Y-52275619D01*
X210457143Y-52275619D01*
X210553905Y-52324000D01*
X210602286Y-52372381D01*
X210650667Y-52469143D01*
X210650667Y-52614286D01*
X210602286Y-52711048D01*
X210553905Y-52759429D01*
X210457143Y-52807810D01*
X210070096Y-52807810D01*
X210989334Y-52275619D02*
X211618286Y-52275619D01*
X211279620Y-52662667D01*
X211424762Y-52662667D01*
X211521524Y-52711048D01*
X211569905Y-52759429D01*
X211618286Y-52856190D01*
X211618286Y-53098095D01*
X211569905Y-53194857D01*
X211521524Y-53243238D01*
X211424762Y-53291619D01*
X211134477Y-53291619D01*
X211037715Y-53243238D01*
X210989334Y-53194857D01*
D16*
X192550143Y-65114714D02*
X192296143Y-64751857D01*
X192114715Y-65114714D02*
X192114715Y-64352714D01*
X192405000Y-64352714D01*
X192477572Y-64389000D01*
X192513857Y-64425286D01*
X192550143Y-64497857D01*
X192550143Y-64606714D01*
X192513857Y-64679286D01*
X192477572Y-64715571D01*
X192405000Y-64751857D01*
X192114715Y-64751857D01*
X193275857Y-65114714D02*
X192840429Y-65114714D01*
X193058143Y-65114714D02*
X193058143Y-64352714D01*
X192985572Y-64461571D01*
X192913000Y-64534143D01*
X192840429Y-64570429D01*
X193529857Y-64352714D02*
X194001571Y-64352714D01*
X193747571Y-64643000D01*
X193856429Y-64643000D01*
X193929000Y-64679286D01*
X193965286Y-64715571D01*
X194001571Y-64788143D01*
X194001571Y-64969571D01*
X193965286Y-65042143D01*
X193929000Y-65078429D01*
X193856429Y-65114714D01*
X193638714Y-65114714D01*
X193566143Y-65078429D01*
X193529857Y-65042143D01*
X190010143Y-47334714D02*
X189756143Y-46971857D01*
X189574715Y-47334714D02*
X189574715Y-46572714D01*
X189865000Y-46572714D01*
X189937572Y-46609000D01*
X189973857Y-46645286D01*
X190010143Y-46717857D01*
X190010143Y-46826714D01*
X189973857Y-46899286D01*
X189937572Y-46935571D01*
X189865000Y-46971857D01*
X189574715Y-46971857D01*
X190735857Y-47334714D02*
X190300429Y-47334714D01*
X190518143Y-47334714D02*
X190518143Y-46572714D01*
X190445572Y-46681571D01*
X190373000Y-46754143D01*
X190300429Y-46790429D01*
X191425286Y-46572714D02*
X191062429Y-46572714D01*
X191026143Y-46935571D01*
X191062429Y-46899286D01*
X191135000Y-46863000D01*
X191316429Y-46863000D01*
X191389000Y-46899286D01*
X191425286Y-46935571D01*
X191461571Y-47008143D01*
X191461571Y-47189571D01*
X191425286Y-47262143D01*
X191389000Y-47298429D01*
X191316429Y-47334714D01*
X191135000Y-47334714D01*
X191062429Y-47298429D01*
X191026143Y-47262143D01*
X192550143Y-77814714D02*
X192296143Y-77451857D01*
X192114715Y-77814714D02*
X192114715Y-77052714D01*
X192405000Y-77052714D01*
X192477572Y-77089000D01*
X192513857Y-77125286D01*
X192550143Y-77197857D01*
X192550143Y-77306714D01*
X192513857Y-77379286D01*
X192477572Y-77415571D01*
X192405000Y-77451857D01*
X192114715Y-77451857D01*
X193275857Y-77814714D02*
X192840429Y-77814714D01*
X193058143Y-77814714D02*
X193058143Y-77052714D01*
X192985572Y-77161571D01*
X192913000Y-77234143D01*
X192840429Y-77270429D01*
X193929000Y-77052714D02*
X193783857Y-77052714D01*
X193711286Y-77089000D01*
X193675000Y-77125286D01*
X193602429Y-77234143D01*
X193566143Y-77379286D01*
X193566143Y-77669571D01*
X193602429Y-77742143D01*
X193638714Y-77778429D01*
X193711286Y-77814714D01*
X193856429Y-77814714D01*
X193929000Y-77778429D01*
X193965286Y-77742143D01*
X194001571Y-77669571D01*
X194001571Y-77488143D01*
X193965286Y-77415571D01*
X193929000Y-77379286D01*
X193856429Y-77343000D01*
X193711286Y-77343000D01*
X193638714Y-77379286D01*
X193602429Y-77415571D01*
X193566143Y-77488143D01*
X190010143Y-75274714D02*
X189756143Y-74911857D01*
X189574715Y-75274714D02*
X189574715Y-74512714D01*
X189865000Y-74512714D01*
X189937572Y-74549000D01*
X189973857Y-74585286D01*
X190010143Y-74657857D01*
X190010143Y-74766714D01*
X189973857Y-74839286D01*
X189937572Y-74875571D01*
X189865000Y-74911857D01*
X189574715Y-74911857D01*
X190735857Y-75274714D02*
X190300429Y-75274714D01*
X190518143Y-75274714D02*
X190518143Y-74512714D01*
X190445572Y-74621571D01*
X190373000Y-74694143D01*
X190300429Y-74730429D01*
X190989857Y-74512714D02*
X191497857Y-74512714D01*
X191171286Y-75274714D01*
M02*
